<?xml version="1.0" encoding="UTF-8" standalone="no"?>
<svg width="220px" height="75px" viewBox="0 0 220 75" version="1.1" xmlns="http://www.w3.org/2000/svg" xmlns:xlink="http://www.w3.org/1999/xlink">
    <!-- Generator: Sketch 40.3 (33839) - http://www.bohemiancoding.com/sketch -->
    <title>Group</title>
    <desc>Created with Sketch.</desc>
    <defs></defs>
    <g id="Page-1" stroke="none" stroke-width="1" fill="none" fill-rule="evenodd">
        <g id="Group">
            <polygon id="Shape" fill="#2798D8" points="42.7 11.5 0.8 22.3 0.7 63.2 42.9 52.3 42.9 52.3 42.9 11.4"></polygon>
            <polygon id="Shape" fill="#21469C" points="56.4 63.2 42.9 63.2 42.9 74.1 29.4 63.2 0.7 63.2 6.9 22.3 56.4 22.3"></polygon>
            <polygon id="Shape" fill="#2798D8" points="42.7 11.5 0.8 22.3 0.7 63.2 42.9 52.3"></polygon>
            <polygon id="Shape" fill="#4FD7ED" points="29.4 0.5 0.8 22.3 0.7 63.2 29.4 41.4"></polygon>
            <polygon id="Shape" fill="#21469C" points="95 63.3 83.4 22.3 90.5 22.3 99.1 54.3 108.4 22.3 114.6 22.3 123.8 54.3 132.4 22.3 139.5 22.3 127.9 63.3 120.1 63.3 111.4 33.4 102.7 63.3"></polygon>
            <path d="M144.6,28.5 C143,26.9 143,24.4 144.6,22.8 C146.2,21.2 148.8,21.2 150.3,22.8 C151.9,24.4 151.9,26.8 150.2,28.5 C148.7,30.1 146.2,30.1 144.6,28.5 L144.6,28.5 Z M144.3,63.3 L144.3,34 L150.6,34 L150.6,63.3 L144.3,63.3 L144.3,63.3 Z" id="Shape" fill="#21469C"></path>
            <path d="M158.1,28.5 C156.5,26.9 156.5,24.4 158.1,22.8 C159.7,21.2 162.3,21.2 163.8,22.8 C165.4,24.4 165.4,26.8 163.7,28.5 C162.2,30.1 159.8,30.1 158.1,28.5 L158.1,28.5 Z M157.8,63.3 L157.8,34 L164.1,34 L164.1,63.3 L157.8,63.3 L157.8,63.3 Z" id="Shape" fill="#21469C"></path>
            <path d="M176.8,39 C178.4,35.4 181.4,33.6 185.8,33.6 L185.8,40.5 C183.4,40.3 181.3,40.9 179.5,42.3 C177.7,43.6 176.8,45.8 176.8,48.7 L176.8,63.5 L170.5,63.5 L170.5,34.2 L176.8,34.2 L176.8,39 L176.8,39 Z" id="Shape" fill="#21469C"></path>
            <path d="M195.5,51.4 C196.4,55.9 200,58.3 204.9,58.3 C208.2,58.3 210.8,57.1 212.5,54.7 L217.7,57.7 C214.8,62 210.6,64.1 204.9,64.1 C200.2,64.1 196.3,62.6 193.4,59.8 C190.5,56.9 189,53.2 189,48.7 C189,44.3 190.5,40.7 193.3,37.8 C196.2,34.8 199.9,33.4 204.4,33.4 C208.7,33.4 212.2,34.9 214.9,37.9 C217.7,40.9 219.1,44.6 219.1,48.8 C219.1,49.4 219,50.3 218.9,51.4 L195.5,51.4 L195.5,51.4 Z M212.6,46.2 C211.7,41.5 208.4,39 204.2,39 C199.5,39 196.2,41.8 195.4,46.2 L212.6,46.2 L212.6,46.2 Z" id="Shape" fill="#21469C"></path>
        </g>
    </g>
</svg>