<?xml version="1.0" encoding="UTF-8" standalone="no"?>
<svg width="219px" height="74px" viewBox="0 0 219 74" version="1.1" xmlns="http://www.w3.org/2000/svg" xmlns:xlink="http://www.w3.org/1999/xlink">
    <!-- Generator: Sketch 40.3 (33839) - http://www.bohemiancoding.com/sketch -->
    <title>Group 2</title>
    <desc>Created with Sketch.</desc>
    <defs></defs>
    <g id="Page-1" stroke="none" stroke-width="1" fill="none" fill-rule="evenodd">
        <g id="logo_rgb" transform="translate(-188.000000, -149.000000)">
            <g id="Group-2" transform="translate(188.000000, 149.000000)">
                <polygon id="Shape" fill="#2798D8" points="42.5 11.1 0.5 21.9 0.5 62.8 42.6 51.9 42.6 51.9 42.6 11.1"></polygon>
                <polygon id="Shape" fill="#FFFFFF" points="56.1 62.8 42.6 62.8 42.6 73.7 29.1 62.8 0.5 62.8 6.6 22 56.1 22"></polygon>
                <polygon id="Shape" fill="#2798D8" points="42.5 11.1 0.5 21.9 0.5 62.8 42.6 51.9"></polygon>
                <polygon id="Shape" fill="#4FD7ED" points="29.1 0.2 0.5 21.9 0.5 62.8 29.1 41.1"></polygon>
                <polygon id="Shape" fill="#FFFFFF" points="94.7 63 83.1 22 90.2 22 98.8 54 108.1 22 114.3 22 123.5 54 132.1 22 139.2 22 127.6 63 119.8 63 111.1 33.1 102.4 63"></polygon>
                <path d="M144.4,28.1 C142.8,26.5 142.8,24 144.4,22.4 C146,20.8 148.6,20.8 150.1,22.4 C151.7,24 151.7,26.4 150,28.1 C148.4,29.7 146,29.7 144.4,28.1 L144.4,28.1 Z M144.1,63 L144.1,33.7 L150.4,33.7 L150.4,63 L144.1,63 L144.1,63 Z" id="Shape" fill="#FFFFFF"></path>
                <path d="M157.9,28.1 C156.3,26.5 156.3,24 157.9,22.4 C159.5,20.8 162.1,20.8 163.6,22.4 C165.2,24 165.2,26.4 163.5,28.1 C162,29.7 159.5,29.7 157.9,28.1 L157.9,28.1 Z M157.6,63 L157.6,33.7 L163.9,33.7 L163.9,63 L157.6,63 L157.6,63 Z" id="Shape" fill="#FFFFFF"></path>
                <path d="M176.6,38.6 C178.2,35 181.2,33.2 185.6,33.2 L185.6,40.1 C183.2,39.9 181.1,40.5 179.3,41.9 C177.5,43.2 176.6,45.4 176.6,48.3 L176.6,63 L170.3,63 L170.3,33.7 L176.6,33.7 L176.6,38.6 L176.6,38.6 Z" id="Shape" fill="#FFFFFF"></path>
                <path d="M195.2,51 C196.1,55.5 199.7,57.9 204.6,57.9 C207.9,57.9 210.5,56.7 212.2,54.3 L217.4,57.3 C214.5,61.6 210.3,63.7 204.6,63.7 C199.9,63.7 196,62.2 193.1,59.4 C190.2,56.5 188.7,52.8 188.7,48.3 C188.7,43.9 190.2,40.3 193,37.4 C195.9,34.4 199.6,33 204.1,33 C208.4,33 211.9,34.5 214.6,37.5 C217.4,40.5 218.8,44.2 218.8,48.4 C218.8,49 218.7,49.9 218.6,51 L195.2,51 L195.2,51 Z M212.4,45.9 C211.5,41.2 208.2,38.7 204,38.7 C199.3,38.7 196,41.5 195.2,45.9 L212.4,45.9 L212.4,45.9 Z" id="Shape" fill="#FFFFFF"></path>
            </g>
        </g>
    </g>
</svg>