<?xml version="1.0" encoding="UTF-8" standalone="no"?>
<svg width="142px" height="132px" viewBox="0 0 142 132" version="1.1" xmlns="http://www.w3.org/2000/svg" xmlns:xlink="http://www.w3.org/1999/xlink">
    <!-- Generator: Sketch 40.3 (33839) - http://www.bohemiancoding.com/sketch -->
    <title>Mental Health Professional</title>
    <desc>Created with Sketch.</desc>
    <defs></defs>
    <g id="Page-1" stroke="none" stroke-width="1" fill="none" fill-rule="evenodd">
        <g id="Mental-Health-Professional">
            <rect id="Rectangle-2" fill="#FFFFFF" x="0" y="0" width="142" height="132"></rect>
            <path d="M121.991756,91.3710833 C124.712867,84.8903611 126.221533,77.7810278 126.221533,70.3220833 C126.221533,40.0953611 101.548978,15.5933056 71.1104222,15.5933056 C40.6735889,15.5933056 15.9993111,40.0953611 15.9993111,70.3220833 C15.9993111,77.7810278 17.5079778,84.8903611 20.2308111,91.3710833 L121.991756,91.3710833 Z" id="Fill-1" fill="#DEF9FC"></path>
            <path d="M111.436944,92.2321944 C114.772889,85.9409167 116.682833,78.7868056 116.682833,71.1831944 C116.682833,46.1885833 96.2796667,25.9266389 71.1111111,25.9266389 C45.9425556,25.9266389 25.5393889,46.1885833 25.5393889,71.1831944 C25.5393889,78.7868056 27.4476111,85.9409167 30.7852778,92.2321944 L111.436944,92.2321944 Z" id="Fill-4" fill="#C1F3F9"></path>
            <path d="M26.3333333,91.3710833 L22.8888889,91.3710833" id="Stroke-7" stroke="#504B46" stroke-linecap="round"></path>
            <path d="M119.333333,91.3710833 L115.888889,91.3710833" id="Stroke-8" stroke="#504B46" stroke-linecap="round"></path>
            <path d="M29.7777778,91.3710833 L112.444444,91.3710833" id="Stroke-9" stroke="#504B46" stroke-linecap="round"></path>
            <path d="M77.8923611,61.2321944 L67.5590278,61.2321944 C58.0471944,61.2321944 50.3368056,68.9425833 50.3368056,78.4544167 L50.3368056,79.3155278 L58.9479167,79.3155278 L58.9479167,91.3710833 L86.5034722,91.3710833 L86.5034722,79.3155278 L95.1145833,79.3155278 L95.1145833,78.4544167 C95.1145833,68.9425833 87.4041944,61.2321944 77.8923611,61.2321944" id="Fill-10" fill="#4F6FC0"></path>
            <path d="M94.9242778,76.0317667 C94.8795,75.7097111 94.8398889,75.3842111 94.7778889,75.0673222 C94.7210556,75.1809889 94.6831667,75.3049889 94.6831667,75.4410444 C94.6831667,75.6701 94.7778889,75.8767667 94.9242778,76.0317667" id="Fill-12" fill="#FFFFFF"></path>
            <path d="M91.2395833,70.2738611 C90.76425,70.2738611 90.3784722,70.6596389 90.3784722,71.1349722 C90.3784722,71.6103056 90.76425,71.9960833 91.2395833,71.9960833 C91.7149167,71.9960833 92.1006944,71.6103056 92.1006944,71.1349722 C92.1006944,70.6596389 91.7149167,70.2738611 91.2395833,70.2738611" id="Fill-14" fill="#FFFFFF"></path>
            <path d="M91.2395833,78.8849722 C90.9226944,78.8849722 90.6591944,79.0640833 90.5093611,79.31725 L91.9698056,79.31725 C91.8199722,79.0640833 91.5564722,78.8849722 91.2395833,78.8849722" id="Fill-16" fill="#FFFFFF"></path>
            <path d="M81.7673611,62.5238611 C81.7673611,62.9991944 82.1531389,63.3849722 82.6284722,63.3849722 C83.1038056,63.3849722 83.4895833,62.9991944 83.4895833,62.5238611 C83.4895833,62.3878056 83.4516944,62.2620833 83.3948611,62.1484167 C83.0004722,62.0158056 82.5991944,61.9021389 82.19275,61.7970833 C81.9430278,61.9486389 81.7673611,62.2104167 81.7673611,62.5238611" id="Fill-18" fill="#FFFFFF"></path>
            <path d="M86.9340278,67.6905278 C87.4093611,67.6905278 87.7951389,67.30475 87.7951389,66.8294167 C87.7951389,66.3540833 87.4093611,65.9683056 86.9340278,65.9683056 C86.4586944,65.9683056 86.0729167,66.3540833 86.0729167,66.8294167 C86.0729167,67.30475 86.4586944,67.6905278 86.9340278,67.6905278" id="Fill-20" fill="#FFFFFF"></path>
            <path d="M82.6284722,71.9960833 C83.1038056,71.9960833 83.4895833,71.6103056 83.4895833,71.1349722 C83.4895833,70.6596389 83.1038056,70.2738611 82.6284722,70.2738611 C82.1531389,70.2738611 81.7673611,70.6596389 81.7673611,71.1349722 C81.7673611,71.6103056 82.1531389,71.9960833 82.6284722,71.9960833" id="Fill-22" fill="#FFFFFF"></path>
            <path d="M86.9340278,76.3016389 C87.4093611,76.3016389 87.7951389,75.9158611 87.7951389,75.4405278 C87.7951389,74.9651944 87.4093611,74.5794167 86.9340278,74.5794167 C86.4586944,74.5794167 86.0729167,74.9651944 86.0729167,75.4405278 C86.0729167,75.9158611 86.4586944,76.3016389 86.9340278,76.3016389" id="Fill-24" fill="#FFFFFF"></path>
            <path d="M82.6284722,80.6071944 C83.1038056,80.6071944 83.4895833,80.2214167 83.4895833,79.7460833 C83.4895833,79.27075 83.1038056,78.8849722 82.6284722,78.8849722 C82.1531389,78.8849722 81.7673611,79.27075 81.7673611,79.7460833 C81.7673611,80.2214167 82.1531389,80.6071944 82.6284722,80.6071944" id="Fill-26" fill="#FFFFFF"></path>
            <path d="M86.0729167,84.0516389 C86.0729167,84.3668056 86.2503056,84.6303056 86.5034722,84.7801389 L86.5034722,83.3231389 C86.2503056,83.4729722 86.0729167,83.7364722 86.0729167,84.0516389" id="Fill-28" fill="#FFFFFF"></path>
            <path d="M82.6284722,87.4960833 C82.1531389,87.4960833 81.7673611,87.8818611 81.7673611,88.3571944 C81.7673611,88.8325278 82.1531389,89.2183056 82.6284722,89.2183056 C83.1038056,89.2183056 83.4895833,88.8325278 83.4895833,88.3571944 C83.4895833,87.8818611 83.1038056,87.4960833 82.6284722,87.4960833" id="Fill-30" fill="#FFFFFF"></path>
            <path d="M74.0173611,63.3849722 C74.4926944,63.3849722 74.8784722,62.9991944 74.8784722,62.5238611 C74.8784722,62.0485278 74.4926944,61.66275 74.0173611,61.66275 C73.5420278,61.66275 73.15625,62.0485278 73.15625,62.5238611 C73.15625,62.9991944 73.5420278,63.3849722 74.0173611,63.3849722" id="Fill-32" fill="#FFFFFF"></path>
            <path d="M78.3229167,67.6905278 C78.79825,67.6905278 79.1840278,67.30475 79.1840278,66.8294167 C79.1840278,66.3540833 78.79825,65.9683056 78.3229167,65.9683056 C77.8475833,65.9683056 77.4618056,66.3540833 77.4618056,66.8294167 C77.4618056,67.30475 77.8475833,67.6905278 78.3229167,67.6905278" id="Fill-34" fill="#FFFFFF"></path>
            <path d="M74.0173611,71.9960833 C74.4926944,71.9960833 74.8784722,71.6103056 74.8784722,71.1349722 C74.8784722,70.6596389 74.4926944,70.2738611 74.0173611,70.2738611 C73.5420278,70.2738611 73.15625,70.6596389 73.15625,71.1349722 C73.15625,71.6103056 73.5420278,71.9960833 74.0173611,71.9960833" id="Fill-36" fill="#FFFFFF"></path>
            <path d="M78.3229167,76.3016389 C78.79825,76.3016389 79.1840278,75.9158611 79.1840278,75.4405278 C79.1840278,74.9651944 78.79825,74.5794167 78.3229167,74.5794167 C77.8475833,74.5794167 77.4618056,74.9651944 77.4618056,75.4405278 C77.4618056,75.9158611 77.8475833,76.3016389 78.3229167,76.3016389" id="Fill-38" fill="#FFFFFF"></path>
            <path d="M74.0173611,78.8849722 C73.5420278,78.8849722 73.15625,79.27075 73.15625,79.7460833 C73.15625,80.2214167 73.5420278,80.6071944 74.0173611,80.6071944 C74.4926944,80.6071944 74.8784722,80.2214167 74.8784722,79.7460833 C74.8784722,79.27075 74.4926944,78.8849722 74.0173611,78.8849722" id="Fill-40" fill="#FFFFFF"></path>
            <path d="M78.3229167,83.1905278 C77.8475833,83.1905278 77.4618056,83.5763056 77.4618056,84.0516389 C77.4618056,84.5269722 77.8475833,84.91275 78.3229167,84.91275 C78.79825,84.91275 79.1840278,84.5269722 79.1840278,84.0516389 C79.1840278,83.5763056 78.79825,83.1905278 78.3229167,83.1905278" id="Fill-42" fill="#FFFFFF"></path>
            <path d="M74.0173611,87.4960833 C73.5420278,87.4960833 73.15625,87.8818611 73.15625,88.3571944 C73.15625,88.8325278 73.5420278,89.2183056 74.0173611,89.2183056 C74.4926944,89.2183056 74.8784722,88.8325278 74.8784722,88.3571944 C74.8784722,87.8818611 74.4926944,87.4960833 74.0173611,87.4960833" id="Fill-44" fill="#FFFFFF"></path>
            <path d="M65.40625,63.3849722 C65.8815833,63.3849722 66.2673611,62.9991944 66.2673611,62.5238611 C66.2673611,62.0485278 65.8815833,61.66275 65.40625,61.66275 C64.9309167,61.66275 64.5451389,62.0485278 64.5451389,62.5238611 C64.5451389,62.9991944 64.9309167,63.3849722 65.40625,63.3849722" id="Fill-46" fill="#FFFFFF"></path>
            <path d="M69.7118056,67.6905278 C70.1871389,67.6905278 70.5729167,67.30475 70.5729167,66.8294167 C70.5729167,66.3540833 70.1871389,65.9683056 69.7118056,65.9683056 C69.2364722,65.9683056 68.8506944,66.3540833 68.8506944,66.8294167 C68.8506944,67.30475 69.2364722,67.6905278 69.7118056,67.6905278" id="Fill-48" fill="#FFFFFF"></path>
            <path d="M65.40625,70.2738611 C64.9309167,70.2738611 64.5451389,70.6596389 64.5451389,71.1349722 C64.5451389,71.6103056 64.9309167,71.9960833 65.40625,71.9960833 C65.8815833,71.9960833 66.2673611,71.6103056 66.2673611,71.1349722 C66.2673611,70.6596389 65.8815833,70.2738611 65.40625,70.2738611" id="Fill-50" fill="#FFFFFF"></path>
            <path d="M69.7118056,74.5794167 C69.2364722,74.5794167 68.8506944,74.9651944 68.8506944,75.4405278 C68.8506944,75.9158611 69.2364722,76.3016389 69.7118056,76.3016389 C70.1871389,76.3016389 70.5729167,75.9158611 70.5729167,75.4405278 C70.5729167,74.9651944 70.1871389,74.5794167 69.7118056,74.5794167" id="Fill-52" fill="#FFFFFF"></path>
            <path d="M65.40625,78.8849722 C64.9309167,78.8849722 64.5451389,79.27075 64.5451389,79.7460833 C64.5451389,80.2214167 64.9309167,80.6071944 65.40625,80.6071944 C65.8815833,80.6071944 66.2673611,80.2214167 66.2673611,79.7460833 C66.2673611,79.27075 65.8815833,78.8849722 65.40625,78.8849722" id="Fill-54" fill="#FFFFFF"></path>
            <path d="M69.7118056,83.1905278 C69.2364722,83.1905278 68.8506944,83.5763056 68.8506944,84.0516389 C68.8506944,84.5269722 69.2364722,84.91275 69.7118056,84.91275 C70.1871389,84.91275 70.5729167,84.5269722 70.5729167,84.0516389 C70.5729167,83.5763056 70.1871389,83.1905278 69.7118056,83.1905278" id="Fill-56" fill="#FFFFFF"></path>
            <path d="M65.40625,87.4960833 C64.9309167,87.4960833 64.5451389,87.8818611 64.5451389,88.3571944 C64.5451389,88.8325278 64.9309167,89.2183056 65.40625,89.2183056 C65.8815833,89.2183056 66.2673611,88.8325278 66.2673611,88.3571944 C66.2673611,87.8818611 65.8815833,87.4960833 65.40625,87.4960833" id="Fill-58" fill="#FFFFFF"></path>
            <path d="M61.1006944,65.9683056 C60.6253611,65.9683056 60.2395833,66.3540833 60.2395833,66.8294167 C60.2395833,67.30475 60.6253611,67.6905278 61.1006944,67.6905278 C61.5760278,67.6905278 61.9618056,67.30475 61.9618056,66.8294167 C61.9618056,66.3540833 61.5760278,65.9683056 61.1006944,65.9683056" id="Fill-60" fill="#FFFFFF"></path>
            <path d="M56.7951389,71.9960833 C57.2704722,71.9960833 57.65625,71.6103056 57.65625,71.1349722 C57.65625,70.6596389 57.2704722,70.2738611 56.7951389,70.2738611 C56.3198056,70.2738611 55.9340278,70.6596389 55.9340278,71.1349722 C55.9340278,71.6103056 56.3198056,71.9960833 56.7951389,71.9960833" id="Fill-62" fill="#FFFFFF"></path>
            <path d="M61.1006944,74.5794167 C60.6253611,74.5794167 60.2395833,74.9651944 60.2395833,75.4405278 C60.2395833,75.9158611 60.6253611,76.3016389 61.1006944,76.3016389 C61.5760278,76.3016389 61.9618056,75.9158611 61.9618056,75.4405278 C61.9618056,74.9651944 61.5760278,74.5794167 61.1006944,74.5794167" id="Fill-64" fill="#FFFFFF"></path>
            <path d="M56.7951389,78.8849722 C56.47825,78.8849722 56.21475,79.0640833 56.0649167,79.31725 L57.5253611,79.31725 C57.3755278,79.0640833 57.1120278,78.8849722 56.7951389,78.8849722" id="Fill-66" fill="#FFFFFF"></path>
            <path d="M61.1006944,83.1905278 C60.6253611,83.1905278 60.2395833,83.5763056 60.2395833,84.0516389 C60.2395833,84.5269722 60.6253611,84.91275 61.1006944,84.91275 C61.5760278,84.91275 61.9618056,84.5269722 61.9618056,84.0516389 C61.9618056,83.5763056 61.5760278,83.1905278 61.1006944,83.1905278" id="Fill-68" fill="#FFFFFF"></path>
            <path d="M52.4895833,74.5794167 C52.01425,74.5794167 51.6284722,74.9651944 51.6284722,75.4405278 C51.6284722,75.9158611 52.01425,76.3016389 52.4895833,76.3016389 C52.9649167,76.3016389 53.3506944,75.9158611 53.3506944,75.4405278 C53.3506944,74.9651944 52.9649167,74.5794167 52.4895833,74.5794167" id="Fill-70" fill="#FFFFFF"></path>
            <path d="M95.1145833,78.4564833 C95.1145833,68.94465 87.4041944,61.2342611 77.8923611,61.2342611 L67.5590278,61.2342611 C58.0471944,61.2342611 50.3368056,68.94465 50.3368056,78.4564833 L50.3368056,80.1787056 C50.3368056,70.6668722 58.0471944,68.12315 67.5590278,68.12315 L77.8923611,68.12315 C87.4041944,68.12315 95.1145833,70.6668722 95.1145833,80.1787056 L95.1145833,78.4564833 Z" id="Fill-72" fill-opacity="0.2" fill="#FFFFFF"></path>
            <polyline id="Stroke-74" stroke="#504B46" stroke-linecap="round" stroke-linejoin="round" points="58.9479167 77.5953722 58.9479167 91.37315 86.5034722 91.37315 86.5034722 77.5953722"></polyline>
            <path d="M86.5034722,79.3175944 L86.5034722,79.3175944 L95.1145833,79.3175944 L95.1145833,78.4564833 C95.1145833,68.94465 87.4041944,61.2342611 77.8923611,61.2342611 L67.5590278,61.2342611 C58.0471944,61.2342611 50.3368056,68.94465 50.3368056,78.4564833 L50.3368056,79.3175944 L58.9479167,79.3175944" id="Stroke-76" stroke="#504B46" stroke-linecap="round" stroke-linejoin="round"></path>
            <path d="M58.9479167,81.0398167 L58.9479167,79.3175944" id="Fill-78" fill="#EDF2F4"></path>
            <path d="M58.9479167,81.0398167 L58.9479167,79.3175944" id="Stroke-80" stroke="#504B46" stroke-linecap="round" stroke-linejoin="round"></path>
            <path d="M72.8333333,81.03775 L72.8333333,90.5099722" id="Fill-82" fill="#FFD183"></path>
            <path d="M72.8333333,81.03775 L72.8333333,90.5099722" id="Stroke-84" stroke="#4F4A45" stroke-linecap="round" stroke-linejoin="round"></path>
            <path d="M109.753472,94.8155278 L107.170139,94.8155278 L105.447917,94.8155278 L103.617194,94.8155278 C99.1463056,94.8155278 95.0060833,93.25175 95.0060833,81.9005833 L95.0060833,79.31725 L88.1171944,79.31725 L88.1171944,81.9005833 C88.1171944,98.2685833 96.5474722,101.704417 103.617194,101.704417 L105.447917,101.704417 L107.170139,101.704417 L109.753472,101.704417 C111.656528,101.704417 113.197917,100.161306 113.197917,98.2599722 C113.197917,96.3569167 111.656528,94.8155278 109.753472,94.8155278" id="Fill-86" fill="#FFD4C3"></path>
            <path d="M109.753472,94.8155278 L107.170139,94.8155278 L105.447917,94.8155278 L103.617194,94.8155278 C99.1463056,94.8155278 95.0060833,93.25175 95.0060833,81.9005833 L95.0060833,79.31725 L88.1171944,79.31725 L88.1171944,81.9005833 C88.1171944,98.2685833 96.5474722,101.704417 103.617194,101.704417 L105.447917,101.704417 L107.170139,101.704417 L109.753472,101.704417 C111.656528,101.704417 113.197917,100.161306 113.197917,98.2599722 C113.197917,96.3569167 111.656528,94.8155278 109.753472,94.8155278 L109.753472,94.8155278 Z" id="Stroke-88" stroke="#4F4A45"></path>
            <path d="M77.8923611,62.7747889 C77.8923611,64.5021778 77.0295278,66.1159 75.5914722,67.0734556 C73.8554722,68.2307889 71.5959167,68.2307889 69.8599167,67.0734556 C68.4218611,66.1159 67.5590278,64.5021778 67.5590278,62.7747889 L67.5590278,55.2073444 L77.8923611,55.2073444 L77.8923611,62.7747889 Z" id="Fill-90" fill="#FFDFD1"></path>
            <path d="M67.5590278,61.0496389 C67.6899167,61.1081944 67.8121944,61.1736389 67.9499722,61.2270278 C70.8415833,62.3843611 74.6098056,62.3843611 77.5014167,61.2270278 C77.6391944,61.1736389 77.7614722,61.1081944 77.8923611,61.0496389 L77.8923611,55.2061389 L67.5590278,55.2061389 L67.5590278,61.0496389 Z" id="Fill-92" fill="#FFCAB3"></path>
            <path d="M77.8923611,62.7747889 C77.8923611,64.5021778 77.0295278,66.1159 75.5914722,67.0734556 C73.8554722,68.2307889 71.5959167,68.2307889 69.8599167,67.0734556 C68.4218611,66.1159 67.5590278,64.5021778 67.5590278,62.7747889 L67.5590278,55.2073444 L77.8923611,55.2073444 L77.8923611,62.7747889 L77.8923611,62.7747889 Z" id="Stroke-94" stroke="#504B46" stroke-linecap="round" stroke-linejoin="round"></path>
            <path d="M87.5624667,58.4776722 C87.5039111,58.47595 87.4470778,58.4656167 87.3885222,58.4621722 C87.5676333,58.5276167 87.7484667,58.5982278 87.9224111,58.6550611 C87.9327444,58.5982278 87.9379111,58.53795 87.9482444,58.4811167 C87.8173556,58.4776722 87.6968,58.4828389 87.5624667,58.4776722" id="Fill-108" fill="#FFC258"></path>
            <path d="M57.7638889,58.4793944 C57.7690556,58.52245 57.7759444,58.5620611 57.7811111,58.6033944 C57.9085556,58.5603389 58.0411667,58.5103944 58.1703333,58.4621722 C58.1135,58.4656167 58.0566667,58.47595 57.9981111,58.4776722 C57.9171667,58.4811167 57.8431111,58.4776722 57.7638889,58.4793944" id="Fill-110" fill="#FFC258"></path>
            <path d="M77.1388889,98.2599722 C77.1388889,96.3569167 75.5975,94.8155278 73.6944444,94.8155278 L71.1111111,94.8155278 L69.3888889,94.8155278 L67.5598889,94.8155278 C63.0872778,94.8155278 58.9487778,93.25175 58.9487778,81.9005833 L58.9487778,79.31725 L52.0598889,79.31725 L52.0598889,81.9005833 C52.0598889,98.2685833 60.4884444,101.704417 67.5598889,101.704417 L69.3888889,101.704417 L71.1111111,101.704417 L73.6944444,101.704417 C75.5975,101.704417 77.1388889,100.161306 77.1388889,98.2599722" id="Fill-124" fill="#FFD4C3"></path>
            <path d="M77.1388889,98.2599722 C77.1388889,96.3569167 75.5975,94.8155278 73.6944444,94.8155278 L71.1111111,94.8155278 L69.3888889,94.8155278 L67.5598889,94.8155278 C63.0872778,94.8155278 58.9487778,93.25175 58.9487778,81.9005833 L58.9487778,79.31725 L52.0598889,79.31725 L52.0598889,81.9005833 C52.0598889,98.2685833 60.4884444,101.704417 67.5598889,101.704417 L69.3888889,101.704417 L71.1111111,101.704417 L73.6944444,101.704417 C75.5975,101.704417 77.1388889,100.161306 77.1388889,98.2599722 L77.1388889,98.2599722 Z" id="Stroke-126" stroke="#4F4A45"></path>
            <path d="M128.805556,104.28775 C128.805556,105.71375 114.926167,106.871083 97.8055556,106.871083 C80.6849444,106.871083 66.8055556,105.71375 66.8055556,104.28775 C66.8055556,102.86175 80.6849444,101.704417 97.8055556,101.704417 C114.926167,101.704417 128.805556,102.86175 128.805556,104.28775" id="Fill-128" fill="#E4EDF1"></path>
            <path d="M91.4519333,98.2599722 L88.0074889,98.2599722 L96.2328222,72.7590278 C96.4636,72.04775 97.1249333,71.5655278 97.8723778,71.5655278 L100.063044,71.5655278" id="Fill-130" fill="#E4EDF1"></path>
            <path d="M91.4519333,98.2599722 L88.0074889,98.2599722 L96.2328222,72.7590278 C96.4636,72.04775 97.1249333,71.5655278 97.8723778,71.5655278 L100.063044,71.5655278" id="Stroke-132" stroke="#4F4A45" stroke-linejoin="round"></path>
            <path d="M125.035267,98.2599722 L91.4519333,98.2599722 L100.063044,71.5655278 L131.281767,71.5655278 C131.831156,71.5655278 132.349544,71.8290278 132.673322,72.2733611 C132.9971,72.7194167 133.0901,73.2929167 132.9196,73.8164722 L125.035267,98.2599722 Z" id="Fill-134" fill="#ADBBC7"></path>
            <path d="M125.035267,98.2599722 L91.4519333,98.2599722 L100.063044,71.5655278 L131.281767,71.5655278 C131.831156,71.5655278 132.349544,71.8290278 132.673322,72.2733611 C132.9971,72.7194167 133.0901,73.2929167 132.9196,73.8164722 L125.035267,98.2599722 L125.035267,98.2599722 Z" id="Stroke-136" stroke="#4F4A45" stroke-linejoin="round"></path>
            <polygon id="Fill-138" fill="#CBD8DE" points="122.777778 71.5655278 100.063389 71.5655278 91.4522778 98.2599722 96.0833333 98.2599722"></polygon>
            <path d="M125.035267,98.2599722 L89.7297111,98.2599722 L89.7297111,102.565528 L121.590822,102.565528 C123.493878,102.565528 125.035267,101.024139 125.035267,99.1210833 L125.035267,98.2599722 Z" id="Fill-140" fill="#CBD8DE"></path>
            <path d="M125.035267,98.2599722 L89.7297111,98.2599722 L89.7297111,102.565528 L121.590822,102.565528 C123.493878,102.565528 125.035267,101.024139 125.035267,99.1210833 L125.035267,98.2599722 L125.035267,98.2599722 Z" id="Stroke-142" stroke="#4F4A45" stroke-linejoin="round"></path>
            <path d="M89.7297111,98.2599722 L72.5074889,98.2599722 L72.5074889,99.1210833 C72.5074889,101.024139 74.0488778,102.565528 75.9519333,102.565528 L89.7297111,102.565528 L89.7297111,98.2599722 Z" id="Fill-144" fill="#E4EDF1"></path>
            <path d="M89.7297111,98.2599722 L72.5074889,98.2599722 L72.5074889,99.1210833 C72.5074889,101.024139 74.0488778,102.565528 75.9519333,102.565528 L89.7297111,102.565528 L89.7297111,98.2599722 L89.7297111,98.2599722 Z" id="Stroke-146" stroke="#4F4A45" stroke-linejoin="round"></path>
            <path d="M115.289039,83.9624278 C115.278706,82.8912056 116.162206,82.3762611 116.203539,82.35215 C115.705817,81.6253722 114.930817,81.5254833 114.655261,81.5134278 C113.997372,81.4462611 113.370483,81.9009278 113.03465,81.9009278 C112.702261,81.9009278 112.185594,81.5237611 111.63965,81.5323722 C110.921483,81.5444278 110.258428,81.9508722 109.889872,82.5932611 C109.142428,83.8883722 109.698706,85.8052056 110.425483,86.8557611 C110.780261,87.3707056 111.20565,87.94765 111.760206,87.9252611 C112.297539,87.9045944 112.499039,87.5790944 113.146594,87.5790944 C113.79415,87.5790944 113.976706,87.9252611 114.543317,87.9149278 C115.120261,87.9063167 115.485372,87.3930944 115.838428,86.8764278 C116.246594,86.2805389 116.41365,85.7035944 116.423983,85.6725944 C116.410206,85.6674278 115.301094,85.2420389 115.289039,83.9624278" id="Fill-148" fill="#EDF2F4"></path>
            <path d="M115.289039,83.9624278 C115.278706,82.8912056 116.162206,82.3762611 116.203539,82.35215 C115.705817,81.6253722 114.930817,81.5254833 114.655261,81.5134278 C113.997372,81.4462611 113.370483,81.9009278 113.03465,81.9009278 C112.702261,81.9009278 112.185594,81.5237611 111.63965,81.5323722 C110.921483,81.5444278 110.258428,81.9508722 109.889872,82.5932611 C109.142428,83.8883722 109.698706,85.8052056 110.425483,86.8557611 C110.780261,87.3707056 111.20565,87.94765 111.760206,87.9252611 C112.297539,87.9045944 112.499039,87.5790944 113.146594,87.5790944 C113.79415,87.5790944 113.976706,87.9252611 114.543317,87.9149278 C115.120261,87.9063167 115.485372,87.3930944 115.838428,86.8764278 C116.246594,86.2805389 116.41365,85.7035944 116.423983,85.6725944 C116.410206,85.6674278 115.301094,85.2420389 115.289039,83.9624278 L115.289039,83.9624278 Z" id="Stroke-150" stroke="#4F4A45" stroke-linejoin="round"></path>
            <path d="M113.840994,79.3155278 L114.617717,78.5388056" id="Stroke-152" stroke="#4F4A45" stroke-linecap="round" stroke-linejoin="round"></path>
            <path d="M125.035267,98.2599722 L91.4519333,98.2599722 L100.063044,71.5655278 L131.281767,71.5655278 C131.831156,71.5655278 132.349544,71.8290278 132.673322,72.2733611 C132.9971,72.7194167 133.0901,73.2929167 132.9196,73.8164722 L125.035267,98.2599722 L125.035267,98.2599722 Z" id="Stroke-154" stroke="#4F4A45" stroke-linejoin="round"></path>
            <path d="M36.4756722,65.3288444 C35.46645,66.3380667 35.46645,67.9741778 36.4756722,68.9816778 L37.9895056,70.4955111 C38.9970056,71.5047333 38.9970056,73.1408444 37.9895056,74.1483444 L36.4756722,75.6621778 C35.46645,76.6714 35.46645,78.3075111 36.4756722,79.3150111" id="Stroke-156" stroke="#FFFFFF" stroke-linecap="round" stroke-linejoin="round"></path>
            <path d="M43.0078889,65.3288444 C41.9986667,66.3380667 41.9986667,67.9741778 43.0078889,68.9816778 L44.5217222,70.4955111 C45.5292222,71.5047333 45.5292222,73.1408444 44.5217222,74.1483444 L43.0078889,75.6621778 C41.9986667,76.6714 41.9986667,78.3075111 43.0078889,79.3150111" id="Stroke-158" stroke="#FFFFFF" stroke-linecap="round" stroke-linejoin="round"></path>
            <path d="M51.3055556,105.148861 C51.3055556,106.099528 45.9081111,106.871083 39.25,106.871083 C32.5918889,106.871083 27.1944444,106.099528 27.1944444,105.148861 C27.1944444,104.198194 32.5918889,103.426639 39.25,103.426639 C45.9081111,103.426639 51.3055556,104.198194 51.3055556,105.148861" id="Fill-160" fill="#E4EDF1"></path>
            <path d="M31.5,100.843306 C27.7007778,100.843306 24.6111111,97.7536389 24.6111111,93.9544167 C24.6111111,90.1551944 27.7007778,87.0655278 31.5,87.0655278 L31.5,90.5099722 C29.6003889,90.5099722 28.0555556,92.0548056 28.0555556,93.9544167 C28.0555556,95.8540278 29.6003889,97.3988611 31.5,97.3988611 L31.5,100.843306 Z" id="Fill-162" fill="#FFFFFF"></path>
            <path d="M31.5,100.843306 C27.7007778,100.843306 24.6111111,97.7536389 24.6111111,93.9544167 C24.6111111,90.1551944 27.7007778,87.0655278 31.5,87.0655278 L31.5,90.5099722 C29.6003889,90.5099722 28.0555556,92.0548056 28.0555556,93.9544167 C28.0555556,95.8540278 29.6003889,97.3988611 31.5,97.3988611 L31.5,100.843306 L31.5,100.843306 Z" id="Stroke-164" stroke="#4F4A45" stroke-linejoin="round"></path>
            <path d="M48.6145833,102.565528 C48.6145833,103.516194 47.8430278,104.28775 46.8923611,104.28775 L33.3298611,104.28775 C32.3791944,104.28775 31.6076389,103.516194 31.6076389,102.565528 L31.6076389,84.4821944 C31.6076389,83.5315278 32.3791944,82.7599722 33.3298611,82.7599722 L46.8923611,82.7599722 C47.8430278,82.7599722 48.6145833,83.5315278 48.6145833,84.4821944 L48.6145833,102.565528 Z" id="Fill-166" fill="#FFFFFF"></path>
            <path d="M48.6145833,102.565528 C48.6145833,103.516194 47.8430278,104.28775 46.8923611,104.28775 L33.3298611,104.28775 C32.3791944,104.28775 31.6076389,103.516194 31.6076389,102.565528 L31.6076389,84.4821944 C31.6076389,83.5315278 32.3791944,82.7599722 33.3298611,82.7599722 L46.8923611,82.7599722 C47.8430278,82.7599722 48.6145833,83.5315278 48.6145833,84.4821944 L48.6145833,102.565528 L48.6145833,102.565528 Z" id="Stroke-168" stroke="#4F4A45" stroke-linejoin="round"></path>
            <g id="Red-Cross" transform="translate(34.944444, 88.562211)">
                <polygon id="Fill-81" fill="#ED5D47" points="10.1976635 2.99931279 7.19835069 2.99931279 7.19835069 0 3.59917535 0 3.59917535 2.99931279 0.599862558 2.99931279 0.599862558 6.59848814 3.59917535 6.59848814 3.59917535 9.59780093 7.19835069 9.59780093 7.19835069 6.59848814 10.1976635 6.59848814"></polygon>
                <polygon id="Fill-83" fill="#F27E6D" points="7.19835069 0 3.59917535 0 3.59917535 2.99931279 0.599862558 2.99931279 0.599862558 6.59848814 1.19972512 6.59848814 7.19835069 0.599862558"></polygon>
                <polygon id="Stroke-85" stroke="#504B46" stroke-linecap="round" stroke-linejoin="round" points="10.1976635 2.99931279 7.19835069 2.99931279 7.19835069 0 3.59917535 0 3.59917535 2.99931279 0.599862558 2.99931279 0.599862558 6.59848814 3.59917535 6.59848814 3.59917535 9.59780093 7.19835069 9.59780093 7.19835069 6.59848814 10.1976635 6.59848814"></polygon>
            </g>
            <g id="Face" transform="translate(50.444444, 18.444444)">
                <path d="M41.9946667,21.34815 C42.7042222,20.6695944 43.152,19.7172056 43.152,18.6580389 C43.152,16.5965389 41.4814444,14.9259833 39.4199444,14.9259833 C38.7224444,6.58181667 31.7629444,-0.000516666667 23.25,-0.000516666667 C14.7370556,-0.000516666667 7.77755556,6.58181667 7.14205556,14.9328722 C5.01855556,14.9259833 3.348,16.5965389 3.348,18.6580389 C3.348,19.7172056 3.79577778,20.6695944 4.50533333,21.34815 C2.40766667,21.9337056 0.861111111,23.8367611 0.861111111,26.1204278 C0.861111111,28.5642611 2.62638889,30.5878722 4.95138889,31.0063722 C4.85666667,31.4369278 4.79983333,31.8812611 4.79983333,32.3393722 C4.79983333,35.7734833 7.58466667,38.5583167 11.0187778,38.5583167 C14.4546111,38.5583167 17.2377222,35.7734833 17.2377222,32.3393722 C17.2377222,31.9139833 17.1946667,31.4972056 17.112,31.0959278 L29.8013333,31.0959278 C29.7203889,31.4972056 29.6756111,31.9139833 29.6756111,32.3393722 C29.6756111,35.7734833 32.4604444,38.5583167 35.8962778,38.5583167 C39.3303889,38.5583167 42.1152222,35.7734833 42.1152222,32.3393722 C42.1152222,31.8450944 42.0428889,31.3714833 41.9343889,30.91165 C44.0630556,30.3467611 45.6388889,28.4264833 45.6388889,26.1204278 C45.6388889,23.8367611 44.0923333,21.9337056 41.9946667,21.34815 Z" id="Fill-53" fill="#FED75C"></path>
                <path d="M23.25,6.02777778 C29.6342778,6.02777778 35.2676667,8.18744444 38.7000556,11.4872222 C36.6919444,4.84461111 30.5487778,0 23.25,0 C15.9512222,0 9.80805556,4.84461111 7.79994444,11.4872222 C11.2323333,8.18744444 16.8657222,6.02777778 23.25,6.02777778" id="Fill-55" fill="#FFECB0"></path>
                <path d="M45.6388889,26.1204278 C45.6388889,23.8367611 44.0923333,21.9337056 41.9946667,21.34815 C42.7042222,20.6695944 43.152,19.7172056 43.152,18.6580389 C43.152,16.5965389 41.4814444,14.9259833 39.4199444,14.9259833 C39.3975556,14.9259833 39.3786111,14.93115 39.3579444,14.9328722 C38.7224444,6.58181667 31.7629444,-0.000516666667 23.25,-0.000516666667 C14.7370556,-0.000516666667 7.77755556,6.58181667 7.14205556,14.9328722 C7.12138889,14.93115 7.10244444,14.9259833 7.08005556,14.9259833 C5.01855556,14.9259833 3.348,16.5965389 3.348,18.6580389 C3.348,19.7172056 3.79577778,20.6695944 4.50533333,21.34815 C2.40766667,21.9337056 0.861111111,23.8367611 0.861111111,26.1204278 C0.861111111,28.5642611 2.62638889,30.5878722 4.95138889,31.0063722 C4.85666667,31.4369278 4.79983333,31.8812611 4.79983333,32.3393722 C4.79983333,35.7734833 7.58466667,38.5583167 11.0187778,38.5583167 C14.4546111,38.5583167 17.2377222,35.7734833 17.2377222,32.3393722 C17.2377222,31.9139833 17.1946667,31.4972056 17.112,31.0959278 L29.8013333,31.0959278 C29.7203889,31.4972056 29.6756111,31.9139833 29.6756111,32.3393722 C29.6756111,35.7734833 32.4604444,38.5583167 35.8962778,38.5583167 C39.3303889,38.5583167 42.1152222,35.7734833 42.1152222,32.3393722 C42.1152222,31.8450944 42.0428889,31.3714833 41.9343889,30.91165 C44.0630556,30.3467611 45.6388889,28.4264833 45.6388889,26.1204278 L45.6388889,26.1204278 Z" id="Stroke-57" stroke="#504B46" stroke-linejoin="round"></path>
                <path d="M30.9354167,20.2269833 C25.02475,20.2269833 19.80125,17.2854278 16.6461389,12.7869833 C16.6461389,16.8049278 13.4548611,20.0582056 9.47136111,20.1994278 L9.47136111,25.8328167 C9.47136111,33.4433167 15.6403611,39.6105944 23.2491389,39.6105944 C30.8596389,39.6105944 37.0269167,33.4433167 37.0269167,25.8328167 L37.0269167,19.22465 C35.1910278,19.7740389 32.7179167,20.2269833 30.9354167,20.2269833" id="Fill-59" fill="#FDDFD1"></path>
                <path d="M30.9354167,20.2269833 C25.02475,20.2269833 19.80125,17.2854278 16.6461389,12.7869833 C16.6461389,16.8049278 13.4548611,20.0582056 9.47136111,20.1994278 L9.47136111,25.8328167 C9.47136111,33.4433167 15.6403611,39.6105944 23.2491389,39.6105944 C30.8596389,39.6105944 37.0269167,33.4433167 37.0269167,25.8328167 L37.0269167,19.22465 C35.1910278,19.7740389 32.7179167,20.2269833 30.9354167,20.2269833 L30.9354167,20.2269833 Z" id="Stroke-61" stroke="#504B46" stroke-linecap="round" stroke-linejoin="round"></path>
                <path d="M20.6666667,24.1111111 C20.1345,23.1001667 19.2010556,22.3888889 18.0833333,22.3888889 C16.9656111,22.3888889 16.0321667,23.1001667 15.5,24.1111111" id="Stroke-63" stroke="#504B46" stroke-linecap="round" stroke-linejoin="round"></path>
                <path d="M31,24.1111111 C30.4678333,23.1001667 29.5343889,22.3888889 28.4166667,22.3888889 C27.2989444,22.3888889 26.3655,23.1001667 25.8333333,24.1111111" id="Stroke-65" stroke="#504B46" stroke-linecap="round" stroke-linejoin="round"></path>
                <path d="M17.9541667,31.8611111 C19.0167778,32.8720556 20.8871111,33.5833333 23.1208333,33.5833333 C25.3545556,33.5833333 27.2248889,32.8720556 28.2875,31.8611111" id="Stroke-67" stroke="#504B46" stroke-linecap="round" stroke-linejoin="round"></path>
                <path d="M16.3611111,29.2777778 C16.3611111,30.2284444 15.5895556,31 14.6388889,31 C13.6882222,31 12.9166667,30.2284444 12.9166667,29.2777778 C12.9166667,28.3271111 13.6882222,27.5555556 14.6388889,27.5555556 C15.5895556,27.5555556 16.3611111,28.3271111 16.3611111,29.2777778" id="Fill-69" fill="#FCCAB4"></path>
                <path d="M33.5833333,29.2777778 C33.5833333,30.2284444 32.8117778,31 31.8611111,31 C30.9104444,31 30.1388889,30.2284444 30.1388889,29.2777778 C30.1388889,28.3271111 30.9104444,27.5555556 31.8611111,27.5555556 C32.8117778,27.5555556 33.5833333,28.3271111 33.5833333,29.2777778" id="Fill-71" fill="#FCCAB4"></path>
            </g>
        </g>
    </g>
</svg>