<?xml version="1.0" encoding="UTF-8" standalone="no"?>
<svg width="139px" height="131px" viewBox="0 0 139 131" version="1.1" xmlns="http://www.w3.org/2000/svg" xmlns:xlink="http://www.w3.org/1999/xlink">
    <!-- Generator: Sketch 40.3 (33839) - http://www.bohemiancoding.com/sketch -->
    <title>parrot</title>
    <desc>Created with Sketch.</desc>
    <defs></defs>
    <g id="Page-1" stroke="none" stroke-width="1" fill="none" fill-rule="evenodd">
        <g id="parrot">
            <g id="Group">
                <polygon id="Shape" fill="#3D78D8" points="103.3 130.3 78.3 130.3 35.4 130.3 35.4 54.7 69.3 47.7 103.3 54.7 99.8 116.8"></polygon>
                <path d="M135.4,86.9 C135.4,69.1 121,54.8 103.3,54.8 L99.3,83.5 L103.3,111.9 C111.7,111.9 118.6,105.8 119.9,97.8 L133.4,97.8 C134.6,94.3 135.4,90.7 135.4,86.9 L135.4,86.9 Z" id="Shape" fill="#F4B822"></path>
                <path d="M103.3,130.3 L103.3,54.7 L78,54.7 C61.5,54.7 52.8,74.2 63.8,86.4 L103.3,130.3 L103.3,130.3 Z" id="Shape" fill="#FFFFFF"></path>
                <circle id="Oval" fill="#03060C" cx="78.1" cy="73.6" r="9.8"></circle>
                <polygon id="Shape" fill="#03060C" points="138.7 27.2 69.4 0.9 0 27.2 35.4 40.8 35.4 54.7 103.3 54.7 103.3 40.8"></polygon>
            </g>
        </g>
    </g>
</svg>