<?xml version="1.0" encoding="UTF-8" standalone="no"?>
<svg width="1119px" height="915px" viewBox="0 0 1119 915" version="1.1" xmlns="http://www.w3.org/2000/svg" xmlns:xlink="http://www.w3.org/1999/xlink">
    <!-- Generator: Sketch 40.3 (33839) - http://www.bohemiancoding.com/sketch -->
    <title>FeedbackMockups</title>
    <desc>Created with Sketch.</desc>
    <defs>
        <polygon id="path-1" points="0.521386047 9.59203043 18.3120837 9.59203043 18.3120837 0.000179850571 0.521386047 0.000179850571 0.521386047 9.59203043"></polygon>
        <path d="M7.43950359,19.2473083 C6.85769041,18.97035 6.28925778,18.6452546 5.73927907,18.2710195 C-0.0978488372,14.2993194 -1.64504651,6.29596897 2.28373256,0.394472251 L13.8316744,11.2250736 C17.0755116,13.4324396 20.961,13.9276282 24.4479767,12.921664 C24.1609535,13.5577355 23.8211512,14.1788195 23.4226395,14.7777219 C22.0862054,16.785206 20.2883008,18.2907996 18.2677396,19.2473083 L7.43950305,19.2473083 L7.43950359,19.2473083 Z" id="path-3"></path>
        <path d="M11.813435,22.4889949 C9.39218588,22.3078886 7.3919382,21.5717792 6.34653488,20.5149551 C0.724674419,14.8310776 -1.99730233,6.98419716 2.44147674,0.316537004 L15.4897674,12.5535698 C19.1552442,15.0468982 23.5448023,15.606833 27.4848488,14.4695779 C24.1828814,19.9041713 18.7977145,22.158686 14.1909448,22.4889949 L11.813435,22.4889949 L11.813435,22.4889949 Z" id="path-5"></path>
        <path d="M1.53615067,22.5255046 C0.880045527,20.720599 0.521860465,18.7701633 0.521860465,16.7350956 C0.521860465,8.15075838 6.89596871,1.07146922 15.1200767,0.070285452 L15.1200767,22.5255046 L1.53615067,22.5255046 L1.53615067,22.5255046 Z" id="path-7"></path>
        <path d="M23.6689953,24.8626028 C24.7945624,22.5985281 25.4282442,20.0414261 25.4282442,17.3345975 C25.4282442,8.06390008 17.9941047,0.54854424 8.82359302,0.54854424 C5.63891381,0.54854424 2.66359516,1.45500701 0.136336047,3.02665096 L0.136336047,24.8626028 L23.6689953,24.8626028 L23.6689953,24.8626028 Z" id="path-9"></path>
        <path d="M8.43340638,18.2446545 C8.45749825,17.9066767 8.469752,17.5653958 8.469752,17.2212302 C8.469752,17.1723948 8.466832,17.1247362 8.466248,17.0764892 L8.469752,17.0764892 L8.469752,13.1837816 C8.469752,9.49935976 7.064064,6.14678299 4.76544,3.63676325 C3.50365859,2.25885995 1.97270523,1.13491887 0.2565512,0.350249909 L0.2565512,18.2446545 L8.43340638,18.2446545 L8.43340638,18.2446545 Z" id="path-11"></path>
        <rect id="path-13" x="15" y="19.5574122" width="346.515846" height="94.1995006" rx="8"></rect>
        <filter x="-50%" y="-50%" width="200%" height="200%" filterUnits="objectBoundingBox" id="filter-14">
            <feOffset dx="0" dy="2" in="SourceAlpha" result="shadowOffsetOuter1"></feOffset>
            <feGaussianBlur stdDeviation="5" in="shadowOffsetOuter1" result="shadowBlurOuter1"></feGaussianBlur>
            <feColorMatrix values="0 0 0 0 0   0 0 0 0 0   0 0 0 0 0  0 0 0 0.3 0" type="matrix" in="shadowBlurOuter1"></feColorMatrix>
        </filter>
        <polygon id="path-15" points="0.521386047 9.52066116 18.3120837 9.52066116 18.3120837 0.000178512397 0.521386047 0.000178512397 0.521386047 9.52066116"></polygon>
        <path d="M7.43950359,19.1040992 C6.85769041,18.8292016 6.28925778,18.506525 5.73927907,18.1350744 C-0.0978488372,14.1929256 -1.64504651,6.24912397 2.28373256,0.39153719 L13.8316744,11.1415537 C17.0755116,13.3324959 20.961,13.824 24.4479767,12.8255207 C24.1609535,13.4568595 23.8211512,14.0733223 23.4226395,14.6677686 C22.0862054,16.6603161 20.2883008,18.1547074 18.2677396,19.1040992 L7.43950305,19.1040992 L7.43950359,19.1040992 Z" id="path-17"></path>
        <path d="M11.813435,22.3216661 C9.39218588,22.1419073 7.3919382,21.4112749 6.34653488,20.362314 C0.724674419,14.7207273 -1.99730233,6.9322314 2.44147674,0.314181818 L15.4897674,12.4601653 C19.1552442,14.9349421 23.5448023,15.4907107 27.4848488,14.3619174 C24.1828814,19.7560748 18.7977145,21.9938149 14.1909448,22.3216661 L11.813435,22.3216661 L11.813435,22.3216661 Z" id="path-19"></path>
        <path d="M1.53615067,22.3579041 C0.880045527,20.5664279 0.521860465,18.6305044 0.521860465,16.6105785 C0.521860465,8.09011286 6.89596871,1.06349698 15.1200767,0.0697624948 L15.1200767,22.3579041 L1.53615067,22.3579041 L1.53615067,22.3579041 Z" id="path-21"></path>
        <path d="M23.6689953,24.6776132 C24.7945624,22.4303843 25.4282442,19.8923083 25.4282442,17.2056198 C25.4282442,8.00390083 17.9941047,0.54446281 8.82359302,0.54446281 C5.63891381,0.54446281 2.66359516,1.44418107 0.136336047,3.00413124 L0.136336047,24.6776132 L23.6689953,24.6776132 L23.6689953,24.6776132 Z" id="path-23"></path>
        <path d="M8.43340638,18.1089056 C8.45749825,17.7734425 8.469752,17.4347009 8.469752,17.093096 C8.469752,17.044624 8.466832,16.99732 8.466248,16.949432 L8.469752,16.949432 L8.469752,13.085688 C8.469752,9.42868 7.064064,6.101048 4.76544,3.609704 C3.50365859,2.24205296 1.97270523,1.12647453 0.2565512,0.347643883 L0.2565512,18.1089056 L8.43340638,18.1089056 L8.43340638,18.1089056 Z" id="path-25"></path>
        <rect id="path-27" x="15" y="19.4118958" width="346.515846" height="93.4986115" rx="8"></rect>
        <filter x="-50%" y="-50%" width="200%" height="200%" filterUnits="objectBoundingBox" id="filter-28">
            <feOffset dx="0" dy="2" in="SourceAlpha" result="shadowOffsetOuter1"></feOffset>
            <feGaussianBlur stdDeviation="5" in="shadowOffsetOuter1" result="shadowBlurOuter1"></feGaussianBlur>
            <feColorMatrix values="0 0 0 0 0   0 0 0 0 0   0 0 0 0 0  0 0 0 0.3 0" type="matrix" in="shadowBlurOuter1"></feColorMatrix>
        </filter>
    </defs>
    <g id="MockupGraphics" stroke="none" stroke-width="1" fill="none" fill-rule="evenodd">
        <g id="FeedbackMockups">
            <g id="iPhone-Front" transform="translate(113.000000, 11.000000)" fill="#6C84FA">
                <path d="M34.1176471,122.671698 L37.5294118,119.264151 L37.5294118,800.773585 L34.1176471,797.366038 L417.941176,797.366038 L414.529412,800.773585 L414.529412,119.264151 L417.941176,122.671698 L34.1176471,122.671698 Z M417.941176,119.264151 L417.941176,800.773585 L34.1176471,800.773585 L34.1176471,119.264151 L417.941176,119.264151 Z M145,76.6698113 C149.710664,76.6698113 153.529412,72.8557842 153.529412,68.1509434 C153.529412,63.4461026 149.710664,59.6320755 145,59.6320755 C140.289336,59.6320755 136.470588,63.4461026 136.470588,68.1509434 C136.470588,72.8557842 140.289336,76.6698113 145,76.6698113 Z M217.5,51.1132075 C219.855332,51.1132075 221.764706,49.206194 221.764706,46.8537736 C221.764706,44.5013532 219.855332,42.5943396 217.5,42.5943396 C215.144668,42.5943396 213.235294,44.5013532 213.235294,46.8537736 C213.235294,49.206194 215.144668,51.1132075 217.5,51.1132075 Z M179.117647,72.4103774 C179.117647,70.0579569 181.015212,68.1509434 183.381729,68.1509434 L251.618271,68.1509434 C253.973259,68.1509434 255.882353,70.0627436 255.882353,72.4103774 L255.882353,72.4103774 C255.882353,74.7627978 253.984788,76.6698113 251.618271,76.6698113 L183.381729,76.6698113 C181.026741,76.6698113 179.117647,74.7580111 179.117647,72.4103774 L179.117647,72.4103774 Z M251.617647,847.627358 C251.617647,828.807995 236.342656,813.551887 217.5,813.551887 C198.657344,813.551887 183.382353,828.807995 183.382353,847.627358 C183.382353,866.446722 198.657344,881.70283 217.5,881.70283 C236.342656,881.70283 251.617647,866.446722 251.617647,847.627358 Z M191.911765,847.627358 C191.911765,833.512836 203.368008,822.070755 217.5,822.070755 C231.631992,822.070755 243.088235,833.512836 243.088235,847.627358 C243.088235,861.741881 231.631992,873.183962 217.5,873.183962 C203.368008,873.183962 191.911765,861.741881 191.911765,847.627358 Z M17.0588235,834.850702 C17.0588235,867.750289 43.8285752,894.481132 76.8127515,894.481132 L366.71666,894.481132 C399.76493,894.481132 426.470588,867.80849 426.470588,834.850702 L426.470588,68.1492984 C426.470588,35.2497106 399.700837,8.51886792 366.71666,8.51886792 L76.8127515,8.51886792 C43.7644819,8.51886792 17.0588235,35.19151 17.0588235,68.1492984 L17.0588235,834.850702 Z M76.8127515,0 L366.71666,0 C404.428507,0 435,30.5618516 435,68.1492984 L435,834.850702 C435,872.48852 404.500436,903 366.71666,903 L76.8127515,903 C39.1009043,903 8.52941176,872.438148 8.52941176,834.850702 L8.52941176,68.1492984 C8.52941176,30.5114802 39.0289761,0 76.8127515,0 Z M0,123.442473 C0,121.134849 1.97825712,119.264151 4.26470588,119.264151 L8.52941176,119.264151 L8.52941176,153.339623 L4.26470588,153.339623 C1.90937386,153.339623 0,151.507577 0,149.161301 L0,123.442473 L0,123.442473 L0,123.442473 Z M0,200.197109 C0,197.842638 1.97825712,195.933962 4.26470588,195.933962 L8.52941176,195.933962 L8.52941176,264.084906 L4.26470588,264.084906 C1.90937386,264.084906 0,262.118778 0,259.821759 L0,200.197109 L0,200.197109 L0,200.197109 Z M0,285.385788 C0,283.031317 1.97825712,281.122642 4.26470588,281.122642 L8.52941176,281.122642 L8.52941176,349.273585 L4.26470588,349.273585 C1.90937386,349.273585 0,347.307457 0,345.010438 L0,285.385788 L0,285.385788 L0,285.385788 Z" id="Combined-Shape"></path>
            </g>
            <g id="Group-2" transform="translate(152.000000, 135.000000)">
                <rect id="Rectangle-5" fill="#FFFFFF" x="0" y="0" width="375" height="672"></rect>
                <g id="Oval-2" transform="translate(7.000000, 150.103528)" stroke="#979797" stroke-dasharray="6,6,6" stroke-width="4">
                    <ellipse cx="179.5" cy="182.873983" rx="127.5" ry="128.455772"></ellipse>
                    <path id="Oval-2-decoration-1" d="M179.5,311.329755 L168.7,308.329755 L168.7,314.329755 L179.5,311.329755 Z"></path>
                </g>
                <g id="Oval-2-Copy" transform="translate(39.000000, 154.133513)" stroke="#23499A" stroke-width="4" stroke-dasharray="6,6,6">
                    <g id="Oval-2">
                        <ellipse cx="147.5" cy="178.843998" rx="127.5" ry="128.455772"></ellipse>
                    </g>
                </g>
                <g id="Oval-2-Copy-2" transform="translate(59.000000, 204.521739)" stroke-width="4" stroke="#23499A" stroke-dasharray="6,6,6" opacity="0.2">
                    <g id="Oval-2">
                        <ellipse cx="127.5" cy="128.455772" rx="127.5" ry="128.455772"></ellipse>
                    </g>
                </g>
                <g id="girl_3-copy" transform="translate(250.000000, 193.439280)">
                    <g id="shadow" transform="translate(0.000000, 66.544711)">
                        <ellipse id="Oval-Copy" fill="#F7F9FA" cx="25.5" cy="2.99750951" rx="25.5" ry="2.99750951"></ellipse>
                        <ellipse id="Oval" fill="#E9EAEC" cx="25.2034884" cy="2.99750951" rx="10.377907" ry="1.1990038"></ellipse>
                    </g>
                    <g id="Person-6" transform="translate(8.302326, 0.000000)">
                        <g id="Group-48" transform="translate(0.000000, 3.597011)">
                            <path d="M33.7306884,13.8786489 L12.8461884,10.3613712 L0.521386047,13.8786489 L0.521386047,26.6636264 C0.521386047,38.8952637 10.3293977,48.8104257 22.4288512,48.8104257 L31.9012116,49.1593358 C27.6225488,34.417584 33.3268395,19.8299043 33.3268395,19.8299043 L33.7306884,13.8786489 Z" id="Fill-1" fill="#F2BC38"></path>
                            <path d="M18.3120837,38.9676236 L15.9399907,38.9676236 C8.07946744,38.9676236 1.70743256,45.4092716 1.70743256,53.3556693 L1.70743256,54.5546731 C1.70743256,56.5414224 3.30029302,58.1516845 5.26557209,58.1516845 L28.9865023,58.1516845 C30.9517814,58.1516845 32.5446419,56.5414224 32.5446419,54.5546731 L32.5446419,53.3556693 C32.5446419,45.4092716 26.172607,38.9676236 18.3120837,38.9676236" id="Fill-3" fill="#F4CE9F"></path>
                            <path d="M17.1260372,43.7636388 L17.1260372,43.7636388 C15.1607581,43.7636388 13.5678977,42.1533767 13.5678977,40.1666274 L13.5678977,31.7736008 L20.6841767,31.7736008 L20.6841767,40.1666274 C20.6841767,42.1533767 19.0913163,43.7636388 17.1260372,43.7636388" id="Fill-5" fill="#F4CE9F"></path>
                            <path d="M22.3222256,39.5506992 C22.4111791,39.9421739 22.4633651,40.3474372 22.4633651,40.7658895 C22.4633651,43.7460135 20.0734814,46.1614066 17.1261558,46.1614066 C14.1782372,46.1614066 11.7889465,43.7460135 11.7889465,40.7658895 C11.7889465,40.3474372 11.8405395,39.9421739 11.930086,39.5506992 C6.0229814,41.3018442 1.70755116,46.8178612 1.70755116,53.3554295 L1.70755116,54.5544333 C1.70755116,56.5411826 3.30041163,58.1514447 5.2656907,58.1514447 L28.9866209,58.1514447 C30.9519,58.1514447 32.5447605,56.5411826 32.5447605,54.5544333 L32.5447605,53.3554295 C32.5447605,46.8178612 28.2293302,41.3018442 22.3222256,39.5506992" id="Fill-7" fill="#F06168"></path>
                            <path d="M7.34115349,53.65566 C6.84953721,53.65566 6.4516186,54.0585253 6.4516186,54.5549129 L6.4516186,58.1519243 L8.23068837,58.1519243 L8.23068837,54.5549129 C8.23068837,54.0585253 7.83276977,53.65566 7.34115349,53.65566" id="Fill-9" fill="#292929" opacity="0.200000003"></path>
                            <path d="M26.9109209,53.65566 C26.4193047,53.65566 26.021386,54.0585253 26.021386,54.5549129 L26.021386,58.1519243 L27.8004558,58.1519243 L27.8004558,54.5549129 C27.8004558,54.0585253 27.4025372,53.65566 26.9109209,53.65566" id="Fill-11" fill="#292929" opacity="0.200000003"></path>
                            <g id="Group-15" transform="translate(7.709302, 55.154175)">
                                <mask id="mask-2" fill="white">
                                    <use xlink:href="#path-1"></use>
                                </mask>
                                <g id="Clip-14"></g>
                                <path d="M18.3120837,2.80944576 C18.3120837,6.55513365 14.3293395,9.59221028 9.41673488,9.59221028 C4.50413023,9.59221028 0.521386047,6.55513365 0.521386047,2.80944576 C0.521386047,-0.93624212 18.3120837,-0.93624212 18.3120837,2.80944576" id="Fill-13" fill="#F06168" mask="url(#mask-2)"></path>
                            </g>
                            <path d="M20.6841767,38.3681217 C20.6841767,38.3681217 18.0280256,38.9676236 17.1260372,38.9676236 C16.2240488,38.9676236 13.5678977,38.3681217 13.5678977,38.3681217 L13.5678977,37.1691179 C13.5678977,37.1691179 16.2240488,37.7686198 17.1260372,37.7686198 C18.0280256,37.7686198 20.6841767,37.1691179 20.6841767,37.1691179 L20.6841767,38.3681217 Z" id="Fill-16" fill="#292929" opacity="0.200000003"></path>
                            <path d="M20.6841767,37.1691179 C20.6841767,37.1691179 18.0280256,37.7686198 17.1260372,37.7686198 C16.2240488,37.7686198 13.5678977,37.1691179 13.5678977,37.1691179 L13.5678977,35.9701141 C13.5678977,35.9701141 16.2240488,36.569616 17.1260372,36.569616 C18.0280256,36.569616 20.6841767,35.9701141 20.6841767,35.9701141 L20.6841767,37.1691179 Z" id="Fill-18" fill="#292929"></path>
                            <path d="M17.1260372,37.7686198 L17.1260372,37.7686198 C9.92080465,37.7686198 4.07952558,31.8635261 4.07952558,24.579578 L4.07952558,13.1890418 C4.07952558,5.90509373 9.92080465,0 17.1260372,0 L17.1260372,0 C24.3312698,0 30.1725488,5.90509373 30.1725488,13.1890418 L30.1725488,24.579578 C30.1725488,31.8635261 24.3312698,37.7686198 17.1260372,37.7686198" id="Fill-20" fill="#F4CE9F"></path>
                            <path d="M32.39265,20.7610506 C32.2942081,19.46193 31.3513012,18.4439758 30.1522081,18.1837919 L30.1522081,23.7765452 C31.5214988,23.4803912 32.5023593,22.2118452 32.39265,20.7610506" id="Fill-22" fill="#FECD85"></path>
                            <path d="M4.60956977,18.1191057 C4.5645,18.1203047 4.5212093,18.1125112 4.47613953,18.1161082 C2.91115116,18.2366081 1.73993023,19.6172609 1.85972093,21.1993465 C1.95756977,22.4984671 2.90047674,23.5158218 4.09956977,23.7760056 L4.09956977,21.1220107 C4.09956977,20.2299519 4.27866279,19.1664355 4.60956977,18.1191057" id="Fill-24" fill="#FECD85"></path>
                            <path d="M20.7876,32.3556572 C20.2426116,33.7327131 18.9427047,34.6223739 17.4749721,34.6223739 C16.0066465,34.6223739 14.7067395,33.7327131 14.1623442,32.3556572 C14.0478907,32.0654983 14.1392163,31.7495608 14.3965884,31.5517251 C15.1159256,30.9977854 19.8328326,30.9983849 20.5527628,31.5511256 C20.8101349,31.7489613 20.9020535,32.0648988 20.7876,32.3556572" id="Fill-26" fill="#F4CE9F"></path>
                            <path d="M17.5849779,28.3773026 C16.5833616,28.3773026 15.3777453,27.7562187 15.5260012,27.2922042 C15.8349663,26.3258071 16.2998965,27.4780498 17.4758616,27.4780498 C18.6227686,27.4780498 19.1143849,26.3258071 19.42335,27.2922042 C19.5721988,27.7562187 18.5865942,28.3773026 17.5849779,28.3773026" id="Fill-28" fill="#F4CE9F"></path>
                            <path d="M8.14363256,26.5790367 C7.94793488,27.4423195 8.42057442,28.2888161 9.19980698,28.4692662 C9.97963256,28.6497163 10.7701326,28.096376 10.9658302,27.2330933 C11.1615279,26.3698106 10.6882953,25.5239134 9.90906279,25.3428638 C9.12983023,25.1624137 8.33933023,25.715754 8.14363256,26.5790367" id="Fill-30" fill="#F1B08E"></path>
                            <path d="M26.1084419,26.5790367 C26.3041395,27.4423195 25.8315,28.2888161 25.0522674,28.4692662 C24.2724419,28.6497163 23.4819419,28.096376 23.2862442,27.2330933 C23.0905465,26.3698106 23.5637791,25.5239134 24.3430116,25.3428638 C25.1222442,25.1624137 25.9127442,25.715754 26.1084419,26.5790367" id="Fill-32" fill="#F1B08E"></path>
                            <path d="M17.4760395,27.4780498 C16.3000744,27.4780498 15.8351442,26.3258071 15.5261791,27.2922042 C15.3773302,27.7562187 16.5835395,28.3773026 17.5851558,28.3773026 C18.5867721,28.3773026 19.5717837,27.7562187 19.4235279,27.2922042 C19.1145628,26.3258071 18.6229465,27.4780498 17.4760395,27.4780498" id="Fill-34" fill="#F1B08E"></path>
                            <path d="M15.544207,32.4282569 C15.9842302,33.0463433 16.6940791,33.42343 17.4750907,33.42343 C18.2555093,33.42343 18.9653581,33.0463433 19.4053814,32.4282569 C18.4541721,32.305359 16.4960093,32.305359 15.544207,32.4282569" id="Fill-36" fill="#FEFEFE"></path>
                            <path d="M17.4750314,33.42349 C16.6946128,33.42349 15.9841709,33.0464033 15.5441477,32.4283168 C16.496543,32.3054189 18.4541128,32.3054189 19.4053221,32.4283168 C18.9652988,33.0464033 18.25545,33.42349 17.4750314,33.42349 M14.3966477,31.551845 C14.1392756,31.7496807 14.04795,32.0650187 14.1624035,32.3557771 C14.7067988,33.732833 16.0067058,34.6224938 17.4750314,34.6224938 C18.942764,34.6224938 20.2426709,33.732833 20.7876593,32.3557771 C20.9021128,32.0644192 20.8101942,31.7490812 20.5528221,31.5512455 C19.8328919,30.9985048 15.1153919,30.9979053 14.3966477,31.551845" id="Fill-38" fill="#F1644B"></path>
                            <path d="M12.3818512,21.5820685 C12.3818512,20.9196189 11.8510953,20.3830647 11.1958047,20.3830647 C10.540514,20.3830647 10.0097581,20.9196189 10.0097581,21.5820685 C10.0097581,22.2445181 10.540514,22.7810723 11.1958047,22.7810723 C11.8510953,22.7810723 12.3818512,22.2445181 12.3818512,21.5820685" id="Fill-40" fill="#2D2D2D"></path>
                            <path d="M24.2423163,21.5820685 C24.2423163,20.9196189 23.7115605,20.3830647 23.0562698,20.3830647 C22.4009791,20.3830647 21.8702233,20.9196189 21.8702233,21.5820685 C21.8702233,22.2445181 22.4009791,22.7810723 23.0562698,22.7810723 C23.7115605,22.7810723 24.2423163,22.2445181 24.2423163,21.5820685" id="Fill-42" fill="#2D2D2D"></path>
                            <path d="M8.21503256,20.126298 C8.10235814,20.126298 7.98849767,20.0831339 7.9025093,19.9962061 C7.72756744,19.8211515 7.7263814,19.5369876 7.89895116,19.3607341 C8.8383,18.4009315 10.9453116,17.7558675 12.8418,18.3343868 C13.0766372,18.4057275 13.2100674,18.6569188 13.1389047,18.8943216 C13.0683349,19.1323238 12.8216372,19.2690103 12.5844279,19.194672 C11.0769628,18.7360531 9.2718,19.2366372 8.53111395,19.9926091 C8.44453256,20.0819349 8.32948605,20.126298 8.21503256,20.126298" id="Fill-44" fill="#BE7A5E"></path>
                            <path d="M26.0370419,20.126298 C25.9225884,20.126298 25.8075419,20.0819349 25.7209605,19.9926091 C24.9802744,19.2360377 23.1745186,18.7360531 21.6676465,19.194672 C21.4298442,19.2684108 21.1837395,19.1317243 21.1131698,18.8943216 C21.042007,18.6569188 21.1754372,18.4057275 21.4102744,18.3343868 C23.3073558,17.755268 25.4143674,18.4009315 26.3531233,19.3607341 C26.525693,19.5369876 26.524507,19.8211515 26.3495651,19.9962061 C26.2635767,20.0831339 26.1497163,20.126298 26.0370419,20.126298" id="Fill-46" fill="#BE7A5E"></path>
                        </g>
                        <g id="Group-51" transform="translate(13.046512, 1.199004)">
                            <mask id="mask-4" fill="white">
                                <use xlink:href="#path-3"></use>
                            </mask>
                            <g id="Clip-50"></g>
                            <path d="M29.7426663,3.32873431 C29.7426663,12.1204297 22.6928058,19.2473083 13.9961198,19.2473083 C5.30002674,19.2473083 -1.74983372,12.1204297 -1.74983372,3.32873431 C-1.74983372,-5.46296108 5.30002674,-12.5898397 13.9961198,-12.5898397 C22.6928058,-12.5898397 29.7426663,-5.46296108 29.7426663,3.32873431" id="Fill-49" fill="#F2BC38" mask="url(#mask-4)"></path>
                        </g>
                        <path d="M26.4745744,23.6411177 C20.2762953,23.6411177 14.9450163,19.8174946 12.667807,14.3806118 L10.373993,15.0352679 C12.9453419,21.4781148 19.1910628,26.0391253 26.4745744,26.0391253 C28.8425163,26.0391253 30.7751791,25.5697153 32.8335628,24.6974401 C33.1122837,23.7724086 33.3014581,23.262832 33.3014581,23.262832 L33.730807,21.7311046 C31.5787256,22.9420985 29.1075977,23.6411177 26.4745744,23.6411177" id="Fill-52" fill="#373435" opacity="0.200000003"></path>
                        <g id="Group-56" transform="translate(13.046512, 2.398008)">
                            <mask id="mask-6" fill="white">
                                <use xlink:href="#path-5"></use>
                            </mask>
                            <g id="Clip-55"></g>
                            <path d="M30.3487953,4.93258175 C30.3487953,14.6289255 22.5736674,22.4889949 12.9821093,22.4889949 C3.39055116,22.4889949 -4.38457674,14.6289255 -4.38457674,4.93258175 C-4.38457674,-4.76376201 3.39055116,-12.6238314 12.9821093,-12.6238314 C22.5736674,-12.6238314 30.3487953,-4.76376201 30.3487953,4.93258175" id="Fill-54" fill="#F2BC38" mask="url(#mask-6)"></path>
                        </g>
                        <g id="Group-63">
                            <g id="Group-59" transform="translate(0.000000, 0.599502)">
                                <mask id="mask-8" fill="white">
                                    <use xlink:href="#path-7"></use>
                                </mask>
                                <g id="Clip-58"></g>
                                <path d="M15.1200767,10.0870392 C15.1200767,16.9567314 9.61148372,22.5255046 2.81603023,22.5255046 C-3.97942326,22.5255046 -9.4886093,16.9567314 -9.4886093,10.0870392 C-9.4886093,3.21734686 -3.97942326,-2.35142631 2.81603023,-2.35142631 C9.61148372,-2.35142631 15.1200767,3.21734686 15.1200767,10.0870392" id="Fill-57" fill="#F2BC38" mask="url(#mask-8)"></path>
                            </g>
                            <g id="Group-62" transform="translate(8.302326, 0.000000)">
                                <mask id="mask-10" fill="white">
                                    <use xlink:href="#path-9"></use>
                                </mask>
                                <g id="Clip-61"></g>
                                <path d="M35.4046151,7.03581427 C35.4046151,16.881434 27.5096965,24.8626028 17.7704756,24.8626028 C8.03125465,24.8626028 0.136336047,16.881434 0.136336047,7.03581427 C0.136336047,-2.80980546 8.03125465,-10.7909743 17.7704756,-10.7909743 C27.5096965,-10.7909743 35.4046151,-2.80980546 35.4046151,7.03581427" id="Fill-60" fill="#F2BC38" mask="url(#mask-10)"></path>
                            </g>
                        </g>
                    </g>
                </g>
                <g id="boy_5" transform="translate(250.000000, 366.728636)">
                    <g id="shadow-copy-4" transform="translate(0.000000, 67.663448)">
                        <ellipse id="Oval-Copy" fill="#F7F9FA" cx="25.112" cy="2.94188906" rx="25.112" ry="2.94188906"></ellipse>
                        <ellipse id="Oval" fill="#E9EAEC" cx="24.82" cy="2.94188906" rx="10.22" ry="1.17675562"></ellipse>
                    </g>
                    <g id="Person-0" transform="translate(8.176000, 0.000000)">
                        <g id="Group-47" transform="translate(0.000000, 0.281833)">
                            <path d="M24.273376,43.5817917 L10.257376,43.5817917 C5.741888,43.5817917 2.081376,47.2697438 2.081376,51.819081 L2.081376,60.0563704 C2.081376,61.356097 3.12732,62.4098816 4.417376,62.4098816 L30.113376,62.4098816 C31.403432,62.4098816 32.449376,61.356097 32.449376,60.0563704 L32.449376,51.819081 C32.449376,47.2697438 28.788864,43.5817917 24.273376,43.5817917" id="Fill-1" fill="#4D4C4E"></path>
                            <path d="M17.265376,48.2888142 L17.265376,48.2888142 C15.33,48.2888142 13.761376,46.7084314 13.761376,44.7585473 L13.761376,36.521258 L20.769376,36.521258 L20.769376,44.7585473 C20.769376,46.7084314 19.200752,48.2888142 17.265376,48.2888142" id="Fill-3" fill="#EAC6A0"></path>
                            <path d="M20.769376,41.8166583 C20.769376,41.8166583 18.15364,42.4050361 17.265376,42.4050361 C16.377112,42.4050361 13.761376,41.8166583 13.761376,41.8166583 L13.761376,40.6399026 C13.761376,40.6399026 16.377112,41.2282804 17.265376,41.2282804 C18.15364,41.2282804 20.769376,40.6399026 20.769376,40.6399026 L20.769376,41.8166583 Z" id="Fill-5" fill="#292929" opacity="0.200000003"></path>
                            <path d="M33.033376,14.1629011 L1.497376,14.1629011 L1.497376,21.2234349 C1.497376,24.4730455 4.111944,27.107213 7.337376,27.107213 L27.193376,27.107213 C30.418808,27.107213 33.033376,24.4730455 33.033376,21.2234349 L33.033376,14.1629011 Z" id="Fill-7" fill="#5F5C61"></path>
                            <path d="M33.033376,25.3716161 C33.033376,26.9961272 31.7258,28.3135052 30.113376,28.3135052 C28.500952,28.3135052 27.193376,26.9961272 27.193376,25.3716161 C27.193376,23.747105 28.500952,22.4297271 30.113376,22.4297271 C31.7258,22.4297271 33.033376,23.747105 33.033376,25.3716161" id="Fill-9" fill="#EAC6A0"></path>
                            <path d="M7.337376,25.3716161 C7.337376,26.9961272 6.0298,28.3135052 4.417376,28.3135052 C2.804952,28.3135052 1.497376,26.9961272 1.497376,25.3716161 C1.497376,23.747105 2.804952,22.4297271 4.417376,22.4297271 C6.0298,22.4297271 7.337376,23.747105 7.337376,25.3716161" id="Fill-11" fill="#EAC6A0"></path>
                            <path d="M33.033376,14.1629011 C33.033376,20.6621224 27.80424,25.9304574 21.353376,25.9304574 C14.902512,25.9304574 9.673376,20.6621224 9.673376,14.1629011 C9.673376,7.66367983 14.902512,2.39534491 21.353376,2.39534491 C28.961144,2.39534491 33.033376,7.66367983 33.033376,14.1629011" id="Fill-13" fill="#5F5C61"></path>
                            <path d="M17.2654344,41.2282804 L17.2654344,41.2282804 C10.1698344,41.2282804 4.4174344,35.432759 4.4174344,28.2839686 L4.4174344,17.1047902 C4.4174344,9.95599978 10.1698344,4.16047834 17.2654344,4.16047834 L17.2654344,4.16047834 C24.3610344,4.16047834 30.1134344,9.95599978 30.1134344,17.1047902 L30.1134344,28.2839686 C30.1134344,35.432759 24.3610344,41.2282804 17.2654344,41.2282804" id="Fill-15" fill="#F8D4AA"></path>
                            <polygon id="Fill-17" fill="#F1F2F2" points="19.601376 43.5817917 17.264792 49.0154608 14.929376 43.5817917 11.425376 43.5817917 17.265376 59.4679926 23.105376 43.5817917"></polygon>
                            <path d="M11.2333568,18.0810855 C7.6756288,18.0640225 4.2890128,16.6089642 1.8011728,14.1065934 L1.4974928,14.1630776 L1.4974928,15.5304677 C4.1506048,17.9286956 7.6073008,19.3107951 11.2275168,19.3284464 C12.4346448,19.3337418 13.6195808,19.190766 14.7624688,18.9112866 C18.7079728,17.9469353 22.1418928,15.3586614 24.1607808,11.6801233 L23.0774608,11.077036 C20.6929888,15.4210294 16.1558928,18.1063857 11.2333568,18.0810855" id="Fill-19" fill="#292929" opacity="0.200000003"></path>
                            <path d="M18.6711808,31.5972417 C17.7548848,31.8861352 16.7761008,31.8867236 15.8592208,31.5990069" id="Stroke-21" stroke="#EAC6A0" stroke-width="2" stroke-linecap="round"></path>
                            <path d="M8.5061352,23.2919359 C8.3653912,23.2919359 8.2240632,23.240747 8.1119352,23.1377809 C7.8742472,22.918316 7.8578952,22.5458728 8.0751432,22.3064031 C8.8974152,21.4003012 10.3433992,21.0961099 11.5984152,21.5685773 C11.9003432,21.6827226 12.0533512,22.0216282 11.9406392,22.3258195 C11.8273432,22.6300109 11.4938792,22.7847542 11.1890312,22.6706089 C10.2785752,22.3275847 9.3663672,22.627069 8.9371272,23.1007131 C8.8220792,23.2278027 8.6643992,23.2919359 8.5061352,23.2919359" id="Fill-23" fill="#5F5C61"></path>
                            <path d="M26.0250256,23.2919359 C25.8667616,23.2919359 25.7090816,23.2278027 25.5940336,23.1007131 C25.1647936,22.627069 24.2520016,22.3275847 23.3421296,22.6706089 C23.0402016,22.7841658 22.7038176,22.6300109 22.5905216,22.3258195 C22.4778096,22.0216282 22.6308176,21.6827226 22.9327456,21.5685773 C24.1842576,21.0961099 25.6331616,21.4003012 26.4560176,22.3064031 C26.6732656,22.5458728 26.6569136,22.918316 26.4192256,23.1377809 C26.3070976,23.240747 26.1657696,23.2919359 26.0250256,23.2919359" id="Fill-25" fill="#5F5C61"></path>
                            <path d="M24.6160672,24.4595128 C24.6160672,24.9466897 24.2236192,25.3420795 23.7400672,25.3420795 C23.2565152,25.3420795 22.8640672,24.9466897 22.8640672,24.4595128 C22.8640672,23.972336 23.2565152,23.5769461 23.7400672,23.5769461 C24.2236192,23.5769461 24.6160672,23.972336 24.6160672,24.4595128" id="Fill-27" fill="#2D2D2D"></path>
                            <path d="M11.6667432,24.4595128 C11.6667432,24.9466897 11.2742952,25.3420795 10.7907432,25.3420795 C10.3071912,25.3420795 9.9147432,24.9466897 9.9147432,24.4595128 C9.9147432,23.972336 10.3071912,23.5769461 10.7907432,23.5769461 C11.2742952,23.5769461 11.6667432,23.972336 11.6667432,24.4595128" id="Fill-29" fill="#2D2D2D"></path>
                            <polygon id="Fill-31" fill="#2878A1" points="18.0077568 45.9618388 17.2660768 45.9618388 17.2654928 45.9618388 17.2649088 45.9618388 16.5232288 45.9618388 14.6345728 47.0350399 16.0402608 50.2799435 18.4907248 50.2799435 19.8964128 47.0350399"></polygon>
                            <polygon id="Fill-33" fill="#2878A1" points="17.265376 59.4679926 15.513376 54.7609701 16.040144 50.2798847 18.490608 50.2798847 19.017376 54.7609701"></polygon>
                            <polygon id="Fill-35" fill="#292929" points="18.5590528 50.7967746 18.4895568 50.2801789 16.0425968 50.2801789 15.9713488 50.7967746"></polygon>
                            <polygon id="Fill-37" fill="#FEFEFE" points="13.761376 41.8166583 11.425376 43.5817917 13.951176 48.1758456 17.251944 45.9617799"></polygon>
                            <polygon id="Fill-39" fill="#FEFEFE" points="20.755944 41.8166583 23.091944 43.5817917 20.566144 48.1758456 17.265376 45.9617799"></polygon>
                            <path d="M19.6987288,35.9177 C19.2367848,36.3425088 18.0693688,36.5060778 17.3872568,36.5060778" id="Stroke-41" stroke="#F4876D" stroke-width="2" stroke-linecap="round" stroke-linejoin="round"></path>
                            <path d="M15.0752008,35.9177 C15.5371448,36.3425088 16.7045608,36.5060778 17.3872568,36.5060778" id="Stroke-43" stroke="#F4876D" stroke-width="2" stroke-linecap="round" stroke-linejoin="round"></path>
                            <path d="M24.1608976,3.12193267 C18.8710256,-2.21347733 2.7648896,-1.04495899 0.0002336,13.9422006 C3.2227456,17.3165474 7.9554816,19.1299278 12.9025456,18.3838647 C18.4651456,17.5442496 22.8398896,13.6986122 24.6502896,8.72917321" id="Fill-45" fill="#5F5C61"></path>
                            <path d="M15.200644,69.1105675 L8.505668,62.3804039 L26.025668,62.3804039 L19.330108,69.1105675 C18.189556,70.2571141 16.341196,70.2571141 15.200644,69.1105675" id="Fill-51" fill="#4D4C4E"></path>
                        </g>
                        <g id="Group-50" transform="translate(22.776000, 3.223722)">
                            <mask id="mask-12" fill="white">
                                <use xlink:href="#path-11"></use>
                            </mask>
                            <g id="Clip-49"></g>
                            <path d="M25.6529592,5.45096739 C25.6529592,12.5167965 19.9677192,18.2446545 12.9544632,18.2446545 C5.9417912,18.2446545 0.2565512,12.5167965 0.2565512,5.45096739 C0.2565512,-1.61486174 5.9417912,-7.34271973 12.9544632,-7.34271973 C19.9677192,-7.34271973 25.6529592,-1.61486174 25.6529592,5.45096739" id="Fill-48" fill="#5F5C61" mask="url(#mask-12)"></path>
                        </g>
                    </g>
                </g>
                <g id="parrot" transform="translate(34.000000, 308.293853)">
                    <g id="Group">
                        <polygon id="Shape" fill="#BDC3C7" points="37.9014388 48.1662938 28.728777 48.1662938 12.9884892 48.1662938 12.9884892 20.2202323 25.4266187 17.632634 37.9014388 20.2202323 36.6172662 43.1759257"></polygon>
                        <path d="M49.6791367,32.1231845 C49.6791367,25.5432917 44.3956835,20.257198 37.9014388,20.257198 L36.4338129,30.866351 L37.9014388,41.3646069 C40.9834532,41.3646069 43.5151079,39.1096998 43.9920863,36.1524446 L48.9453237,36.1524446 C49.3856115,34.8586455 49.6791367,33.5278807 49.6791367,32.1231845 L49.6791367,32.1231845 Z" id="Shape" fill-opacity="0.4" fill="#F4B822"></path>
                        <path d="M37.9014388,48.1662938 L37.9014388,20.2202323 L28.618705,20.2202323 C22.5647482,20.2202323 19.3726619,27.4285418 23.4086331,31.938356 L37.9014388,48.1662938 L37.9014388,48.1662938 Z" id="Shape" fill="#FFFFFF"></path>
                        <ellipse id="Oval" fill="#BDC3C7" cx="28.6553957" cy="27.2067477" rx="3.59568345" ry="3.6226376"></ellipse>
                        <polygon id="Shape" fill="#03060C" points="50.8899281 10.0546676 25.4633094 0.332691208 0 10.0546676 12.9884892 15.0820014 12.9884892 20.2202323 37.9014388 20.2202323 37.9014388 15.0820014"></polygon>
                    </g>
                </g>
                <path d="" id="Line" stroke="#979797" stroke-width="4" stroke-linecap="square"></path>
                <path id="Line-decoration-1" d="M0,0 L-10.8,-3 L-10.8,3 L0,0 Z" stroke="#979797" stroke-width="4" stroke-linecap="square"></path>
                <g id="Rectangle-2">
                    <use fill="black" fill-opacity="1" filter="url(#filter-14)" xlink:href="#path-13"></use>
                    <use fill="#FFFFFF" fill-rule="evenodd" xlink:href="#path-13"></use>
                </g>
                <text id="Feedback-Read-Upadat" font-family="AvenirNext-Bold, Avenir Next" font-size="12" font-weight="bold">
                    <tspan x="71.3846588" y="58.0289704" fill="#6097D2">Feedback Read</tspan>
                    <tspan x="160.376659" y="58.0289704" font-family="AvenirNext-Regular, Avenir Next" font-size="24" font-weight="normal" fill="#2C3E50"></tspan>
                    <tspan x="71.3846588" y="74.0289704" font-family="AvenirNext-Regular, Avenir Next" font-size="14" font-weight="normal" fill="#2C3E50">Upadate! Your feedback has been read by</tspan>
                    <tspan x="71.3846588" y="93.0289704" font-family="AvenirNext-Regular, Avenir Next" font-size="14" font-weight="normal" fill="#2C3E50">Mr T Smith at Senior Management</tspan>
                </text>
                <text id="Estimated-time-until" font-family="AvenirNext-Regular, Avenir Next" font-size="18" font-weight="normal" fill="#2C3E50">
                    <tspan x="27.443" y="563.070465">Estimated time until response: 12 Days</tspan>
                </text>
                <text id="Response-Pending" font-family="AvenirNext-Regular, Avenir Next" font-size="24" font-weight="normal" fill="#2C3E50">
                    <tspan x="132.148" y="318.188906">Response </tspan>
                    <tspan x="140.368" y="351.188906">Pending</tspan>
                </text>
                <g id="Group" transform="translate(23.564758, 35.377176)" fill="#6097D2">
                    <path d="M17.795403,35.8576037 C7.98338219,35.8576037 0,27.8150675 0,17.9289006 C0,8.04263499 7.98338219,0 17.795403,0 C27.6075219,0 35.5909041,8.04263499 35.5909041,17.9289006 C35.5909041,27.8150675 27.6075219,35.8576037 17.795403,35.8576037 L17.795403,35.8576037 Z M17.795403,1.15665229 C8.615739,1.15665229 1.14804624,8.6809174 1.14804624,17.9289006 C1.14804624,27.1768839 8.615739,34.7010502 17.795403,34.7010502 C26.9751651,34.7010502 34.4428579,27.1768839 34.4428579,17.9289006 C34.4428579,8.6809174 26.9751651,1.15665229 17.795403,1.15665229 L17.795403,1.15665229 Z" id="Shape"></path>
                    <polygon id="Shape" points="14.505677 25.5762391 8.14397141 19.1668445 8.95574109 18.3490884 14.505677 23.9405293 26.5855549 11.7705915 27.3973245 12.5883476"></polygon>
                    <polygon id="Shape" fill-opacity="0.6" points="18.505677 26.5837353 16.4830933 24.9480255 17.5685425 23.8683266 18.505677 24.9480255 30.5855549 12.7780877 31.3973245 13.5958439"></polygon>
                </g>
                <ellipse id="Oval" fill="#FE4E22" cx="350.590332" cy="28.0480463" rx="15.8393555" ry="15.9580913"></ellipse>
                <text id="x" font-family="AvenirNext-Regular, Avenir Next" font-size="20" font-weight="normal" fill="#FFFFFF">
                    <tspan x="346.367893" y="32.089955">x</tspan>
                </text>
            </g>
            <g id="iPhone-Front" transform="translate(604.000000, 11.000000)" fill="#6C84FA">
                <path d="M34.1176471,122.671698 L37.5294118,119.264151 L37.5294118,800.773585 L34.1176471,797.366038 L417.941176,797.366038 L414.529412,800.773585 L414.529412,119.264151 L417.941176,122.671698 L34.1176471,122.671698 Z M417.941176,119.264151 L417.941176,800.773585 L34.1176471,800.773585 L34.1176471,119.264151 L417.941176,119.264151 Z M145,76.6698113 C149.710664,76.6698113 153.529412,72.8557842 153.529412,68.1509434 C153.529412,63.4461026 149.710664,59.6320755 145,59.6320755 C140.289336,59.6320755 136.470588,63.4461026 136.470588,68.1509434 C136.470588,72.8557842 140.289336,76.6698113 145,76.6698113 Z M217.5,51.1132075 C219.855332,51.1132075 221.764706,49.206194 221.764706,46.8537736 C221.764706,44.5013532 219.855332,42.5943396 217.5,42.5943396 C215.144668,42.5943396 213.235294,44.5013532 213.235294,46.8537736 C213.235294,49.206194 215.144668,51.1132075 217.5,51.1132075 Z M179.117647,72.4103774 C179.117647,70.0579569 181.015212,68.1509434 183.381729,68.1509434 L251.618271,68.1509434 C253.973259,68.1509434 255.882353,70.0627436 255.882353,72.4103774 L255.882353,72.4103774 C255.882353,74.7627978 253.984788,76.6698113 251.618271,76.6698113 L183.381729,76.6698113 C181.026741,76.6698113 179.117647,74.7580111 179.117647,72.4103774 L179.117647,72.4103774 Z M251.617647,847.627358 C251.617647,828.807995 236.342656,813.551887 217.5,813.551887 C198.657344,813.551887 183.382353,828.807995 183.382353,847.627358 C183.382353,866.446722 198.657344,881.70283 217.5,881.70283 C236.342656,881.70283 251.617647,866.446722 251.617647,847.627358 Z M191.911765,847.627358 C191.911765,833.512836 203.368008,822.070755 217.5,822.070755 C231.631992,822.070755 243.088235,833.512836 243.088235,847.627358 C243.088235,861.741881 231.631992,873.183962 217.5,873.183962 C203.368008,873.183962 191.911765,861.741881 191.911765,847.627358 Z M17.0588235,834.850702 C17.0588235,867.750289 43.8285752,894.481132 76.8127515,894.481132 L366.71666,894.481132 C399.76493,894.481132 426.470588,867.80849 426.470588,834.850702 L426.470588,68.1492984 C426.470588,35.2497106 399.700837,8.51886792 366.71666,8.51886792 L76.8127515,8.51886792 C43.7644819,8.51886792 17.0588235,35.19151 17.0588235,68.1492984 L17.0588235,834.850702 Z M76.8127515,0 L366.71666,0 C404.428507,0 435,30.5618516 435,68.1492984 L435,834.850702 C435,872.48852 404.500436,903 366.71666,903 L76.8127515,903 C39.1009043,903 8.52941176,872.438148 8.52941176,834.850702 L8.52941176,68.1492984 C8.52941176,30.5114802 39.0289761,0 76.8127515,0 Z M0,123.442473 C0,121.134849 1.97825712,119.264151 4.26470588,119.264151 L8.52941176,119.264151 L8.52941176,153.339623 L4.26470588,153.339623 C1.90937386,153.339623 0,151.507577 0,149.161301 L0,123.442473 L0,123.442473 L0,123.442473 Z M0,200.197109 C0,197.842638 1.97825712,195.933962 4.26470588,195.933962 L8.52941176,195.933962 L8.52941176,264.084906 L4.26470588,264.084906 C1.90937386,264.084906 0,262.118778 0,259.821759 L0,200.197109 L0,200.197109 L0,200.197109 Z M0,285.385788 C0,283.031317 1.97825712,281.122642 4.26470588,281.122642 L8.52941176,281.122642 L8.52941176,349.273585 L4.26470588,349.273585 C1.90937386,349.273585 0,347.307457 0,345.010438 L0,285.385788 L0,285.385788 L0,285.385788 Z" id="Combined-Shape"></path>
            </g>
            <g id="IPhone-Step-2" transform="translate(642.000000, 137.000000)">
                <rect id="Rectangle-6" fill="#FFFFFF" x="0" y="0" width="375" height="667"></rect>
                <g id="Oval-2" transform="translate(8.000000, 148.000000)" stroke="#979797" stroke-width="4" stroke-dasharray="6,6,6">
                    <circle cx="178.5" cy="182.5" r="127.5"></circle>
                    <path id="Oval-2-decoration-1" d="M178.5,310 L167.7,307 L167.7,313 L178.5,310 Z"></path>
                </g>
                <g id="Oval-2-Copy" transform="translate(39.000000, 152.000000)" stroke-width="4" stroke="#23499A" stroke-dasharray="6,6,6">
                    <g id="Oval-2">
                        <circle cx="147.5" cy="178.5" r="127.5"></circle>
                    </g>
                </g>
                <g id="Oval-2-Copy-2" transform="translate(59.000000, 203.000000)" stroke-width="4" stroke="#23499A" stroke-dasharray="6,6,6">
                    <g id="Oval-2">
                        <circle cx="127.5" cy="127.5" r="127.5"></circle>
                    </g>
                </g>
                <g id="girl_3-copy" transform="translate(250.000000, 192.000000)">
                    <g id="shadow" transform="translate(0.000000, 66.049587)">
                        <ellipse id="Oval-Copy" fill="#F7F9FA" cx="25.5" cy="2.97520661" rx="25.5" ry="2.97520661"></ellipse>
                        <ellipse id="Oval" fill="#E9EAEC" cx="25.2034884" cy="2.97520661" rx="10.377907" ry="1.19008264"></ellipse>
                    </g>
                    <g id="Person-6" transform="translate(8.302326, 0.000000)">
                        <g id="Group-48" transform="translate(0.000000, 3.570248)">
                            <path d="M33.7306884,13.7753851 L12.8461884,10.2842777 L0.521386047,13.7753851 L0.521386047,26.4652364 C0.521386047,38.6058645 10.3293977,48.4472529 22.4288512,48.4472529 L31.9012116,48.7935669 C27.6225488,34.1615008 33.3268395,19.6823603 33.3268395,19.6823603 L33.7306884,13.7753851 Z" id="Fill-1" fill="#F2BC38"></path>
                            <path d="M18.3120837,38.677686 L15.9399907,38.677686 C8.07946744,38.677686 1.70743256,45.071405 1.70743256,52.9586777 L1.70743256,54.1487603 C1.70743256,56.1207273 3.30029302,57.7190083 5.26557209,57.7190083 L28.9865023,57.7190083 C30.9517814,57.7190083 32.5446419,56.1207273 32.5446419,54.1487603 L32.5446419,52.9586777 C32.5446419,45.071405 26.172607,38.677686 18.3120837,38.677686" id="Fill-3" fill="#F4CE9F"></path>
                            <path d="M17.1260372,43.4380165 L17.1260372,43.4380165 C15.1607581,43.4380165 13.5678977,41.8397355 13.5678977,39.8677686 L13.5678977,31.5371901 L20.6841767,31.5371901 L20.6841767,39.8677686 C20.6841767,41.8397355 19.0913163,43.4380165 17.1260372,43.4380165" id="Fill-5" fill="#F4CE9F"></path>
                            <path d="M22.3222256,39.2564231 C22.4111791,39.6449851 22.4633651,40.0472331 22.4633651,40.4625719 C22.4633651,43.4205223 20.0734814,45.8179438 17.1261558,45.8179438 C14.1782372,45.8179438 11.7889465,43.4205223 11.7889465,40.4625719 C11.7889465,40.0472331 11.8405395,39.6449851 11.930086,39.2564231 C6.0229814,40.9945388 1.70755116,46.469514 1.70755116,52.9584397 L1.70755116,54.1485223 C1.70755116,56.1204893 3.30041163,57.7187702 5.2656907,57.7187702 L28.9866209,57.7187702 C30.9519,57.7187702 32.5447605,56.1204893 32.5447605,54.1485223 L32.5447605,52.9584397 C32.5447605,46.469514 28.2293302,40.9945388 22.3222256,39.2564231" id="Fill-7" fill="#F06168"></path>
                            <path d="M7.34115349,53.2564364 C6.84953721,53.2564364 6.4516186,53.6563041 6.4516186,54.1489983 L6.4516186,57.7192463 L8.23068837,57.7192463 L8.23068837,54.1489983 C8.23068837,53.6563041 7.83276977,53.2564364 7.34115349,53.2564364" id="Fill-9" fill="#292929" opacity="0.200000003"></path>
                            <path d="M26.9109209,53.2564364 C26.4193047,53.2564364 26.021386,53.6563041 26.021386,54.1489983 L26.021386,57.7192463 L27.8004558,57.7192463 L27.8004558,54.1489983 C27.8004558,53.6563041 27.4025372,53.2564364 26.9109209,53.2564364" id="Fill-11" fill="#292929" opacity="0.200000003"></path>
                            <g id="Group-15" transform="translate(7.709302, 54.743802)">
                                <mask id="mask-16" fill="white">
                                    <use xlink:href="#path-15"></use>
                                </mask>
                                <g id="Clip-14"></g>
                                <path d="M18.3120837,2.78854215 C18.3120837,6.50636033 14.3293395,9.52083967 9.41673488,9.52083967 C4.50413023,9.52083967 0.521386047,6.50636033 0.521386047,2.78854215 C0.521386047,-0.929276033 18.3120837,-0.929276033 18.3120837,2.78854215" id="Fill-13" fill="#F06168" mask="url(#mask-16)"></path>
                            </g>
                            <path d="M20.6841767,38.0826446 C20.6841767,38.0826446 18.0280256,38.677686 17.1260372,38.677686 C16.2240488,38.677686 13.5678977,38.0826446 13.5678977,38.0826446 L13.5678977,36.892562 C13.5678977,36.892562 16.2240488,37.4876033 17.1260372,37.4876033 C18.0280256,37.4876033 20.6841767,36.892562 20.6841767,36.892562 L20.6841767,38.0826446 Z" id="Fill-16" fill="#292929" opacity="0.200000003"></path>
                            <path d="M20.6841767,36.892562 C20.6841767,36.892562 18.0280256,37.4876033 17.1260372,37.4876033 C16.2240488,37.4876033 13.5678977,36.892562 13.5678977,36.892562 L13.5678977,35.7024793 C13.5678977,35.7024793 16.2240488,36.2975207 17.1260372,36.2975207 C18.0280256,36.2975207 20.6841767,35.7024793 20.6841767,35.7024793 L20.6841767,36.892562 Z" id="Fill-18" fill="#292929"></path>
                            <path d="M17.1260372,37.4876033 L17.1260372,37.4876033 C9.92080465,37.4876033 4.07952558,31.6264463 4.07952558,24.3966942 L4.07952558,13.0909091 C4.07952558,5.86115702 9.92080465,0 17.1260372,0 L17.1260372,0 C24.3312698,0 30.1725488,5.86115702 30.1725488,13.0909091 L30.1725488,24.3966942 C30.1725488,31.6264463 24.3312698,37.4876033 17.1260372,37.4876033" id="Fill-20" fill="#F4CE9F"></path>
                            <path d="M32.39265,20.6065785 C32.2942081,19.317124 31.3513012,18.3067438 30.1522081,18.0484959 L30.1522081,23.5996364 C31.5214988,23.305686 32.5023593,22.0465785 32.39265,20.6065785" id="Fill-22" fill="#FECD85"></path>
                            <path d="M4.60956977,17.9842909 C4.5645,17.985481 4.5212093,17.9777455 4.47613953,17.9813157 C2.91115116,18.100919 1.73993023,19.4712992 1.85972093,21.0416132 C1.95756977,22.3310678 2.90047674,23.3408529 4.09956977,23.5991008 L4.09956977,20.9648529 C4.09956977,20.0794314 4.27866279,19.0238281 4.60956977,17.9842909" id="Fill-24" fill="#FECD85"></path>
                            <path d="M20.7876,32.1149157 C20.2426116,33.4817256 18.9427047,34.3647669 17.4749721,34.3647669 C16.0066465,34.3647669 14.7067395,33.4817256 14.1623442,32.1149157 C14.0478907,31.8269157 14.1392163,31.5133289 14.3965884,31.3169653 C15.1159256,30.7671471 19.8328326,30.7677421 20.5527628,31.3163702 C20.8101349,31.5127339 20.9020535,31.8263207 20.7876,32.1149157" id="Fill-26" fill="#F4CE9F"></path>
                            <path d="M17.5849779,28.166162 C16.5833616,28.166162 15.3777453,27.5496992 15.5260012,27.0891372 C15.8349663,26.1299306 16.2998965,27.2736 17.4758616,27.2736 C18.6227686,27.2736 19.1143849,26.1299306 19.42335,27.0891372 C19.5721988,27.5496992 18.5865942,28.166162 17.5849779,28.166162" id="Fill-28" fill="#F4CE9F"></path>
                            <path d="M8.14363256,26.381276 C7.94793488,27.2381355 8.42057442,28.0783339 9.19980698,28.2574413 C9.97963256,28.4365488 10.7701326,27.8873256 10.9658302,27.0304661 C11.1615279,26.1736066 10.6882953,25.3340033 9.90906279,25.1543008 C9.12983023,24.9751934 8.33933023,25.5244165 8.14363256,26.381276" id="Fill-30" fill="#F1B08E"></path>
                            <path d="M26.1084419,26.381276 C26.3041395,27.2381355 25.8315,28.0783339 25.0522674,28.2574413 C24.2724419,28.4365488 23.4819419,27.8873256 23.2862442,27.0304661 C23.0905465,26.1736066 23.5637791,25.3340033 24.3430116,25.1543008 C25.1222442,24.9751934 25.9127442,25.5244165 26.1084419,26.381276" id="Fill-32" fill="#F1B08E"></path>
                            <path d="M17.4760395,27.2736 C16.3000744,27.2736 15.8351442,26.1299306 15.5261791,27.0891372 C15.3773302,27.5496992 16.5835395,28.166162 17.5851558,28.166162 C18.5867721,28.166162 19.5717837,27.5496992 19.4235279,27.0891372 C19.1145628,26.1299306 18.6229465,27.2736 17.4760395,27.2736" id="Fill-34" fill="#F1B08E"></path>
                            <path d="M15.544207,32.1869752 C15.9842302,32.8004628 16.6940791,33.1747438 17.4750907,33.1747438 C18.2555093,33.1747438 18.9653581,32.8004628 19.4053814,32.1869752 C18.4541721,32.0649917 16.4960093,32.0649917 15.544207,32.1869752" id="Fill-36" fill="#FEFEFE"></path>
                            <path d="M17.4750314,33.1748033 C16.6946128,33.1748033 15.9841709,32.8005223 15.5441477,32.1870347 C16.496543,32.0650512 18.4541128,32.0650512 19.4053221,32.1870347 C18.9652988,32.8005223 18.25545,33.1748033 17.4750314,33.1748033 M14.3966477,31.3170843 C14.1392756,31.5134479 14.04795,31.8264397 14.1624035,32.1150347 C14.7067988,33.4818446 16.0067058,34.364886 17.4750314,34.364886 C18.942764,34.364886 20.2426709,33.4818446 20.7876593,32.1150347 C20.9021128,31.8258446 20.8101942,31.5128529 20.5528221,31.3164893 C19.8328919,30.7678612 15.1153919,30.7672661 14.3966477,31.3170843" id="Fill-38" fill="#F1644B"></path>
                            <path d="M12.3818512,21.4214876 C12.3818512,20.7639669 11.8510953,20.231405 11.1958047,20.231405 C10.540514,20.231405 10.0097581,20.7639669 10.0097581,21.4214876 C10.0097581,22.0790083 10.540514,22.6115702 11.1958047,22.6115702 C11.8510953,22.6115702 12.3818512,22.0790083 12.3818512,21.4214876" id="Fill-40" fill="#2D2D2D"></path>
                            <path d="M24.2423163,21.4214876 C24.2423163,20.7639669 23.7115605,20.231405 23.0562698,20.231405 C22.4009791,20.231405 21.8702233,20.7639669 21.8702233,21.4214876 C21.8702233,22.0790083 22.4009791,22.6115702 23.0562698,22.6115702 C23.7115605,22.6115702 24.2423163,22.0790083 24.2423163,21.4214876" id="Fill-42" fill="#2D2D2D"></path>
                            <path d="M8.21503256,19.9765488 C8.10235814,19.9765488 7.98849767,19.9337058 7.9025093,19.8474248 C7.72756744,19.6736727 7.7263814,19.3916231 7.89895116,19.216681 C8.8383,18.2640198 10.9453116,17.6237554 12.8418,18.1979702 C13.0766372,18.2687802 13.2100674,18.5181025 13.1389047,18.7537388 C13.0683349,18.9899702 12.8216372,19.1256397 12.5844279,19.0518545 C11.0769628,18.5966479 9.2718,19.0935074 8.53111395,19.8438545 C8.44453256,19.9325157 8.32948605,19.9765488 8.21503256,19.9765488" id="Fill-44" fill="#BE7A5E"></path>
                            <path d="M26.0370419,19.9765488 C25.9225884,19.9765488 25.8075419,19.9325157 25.7209605,19.8438545 C24.9802744,19.0929124 23.1745186,18.5966479 21.6676465,19.0518545 C21.4298442,19.1250446 21.1837395,18.9893752 21.1131698,18.7537388 C21.042007,18.5181025 21.1754372,18.2687802 21.4102744,18.1979702 C23.3073558,17.6231603 25.4143674,18.2640198 26.3531233,19.216681 C26.525693,19.3916231 26.524507,19.6736727 26.3495651,19.8474248 C26.2635767,19.9337058 26.1497163,19.9765488 26.0370419,19.9765488" id="Fill-46" fill="#BE7A5E"></path>
                        </g>
                        <g id="Group-51" transform="translate(13.046512, 1.190083)">
                            <mask id="mask-18" fill="white">
                                <use xlink:href="#path-17"></use>
                            </mask>
                            <g id="Clip-50"></g>
                            <path d="M29.7426663,3.30396694 C29.7426663,12.0302479 22.6928058,19.1040992 13.9961198,19.1040992 C5.30002674,19.1040992 -1.74983372,12.0302479 -1.74983372,3.30396694 C-1.74983372,-5.42231405 5.30002674,-12.4961653 13.9961198,-12.4961653 C22.6928058,-12.4961653 29.7426663,-5.42231405 29.7426663,3.30396694" id="Fill-49" fill="#F2BC38" mask="url(#mask-18)"></path>
                        </g>
                        <path d="M26.4745744,23.4652165 C20.2762953,23.4652165 14.9450163,19.670043 12.667807,14.2736132 L10.373993,14.9233983 C12.9453419,21.3183074 19.1910628,25.8453818 26.4745744,25.8453818 C28.8425163,25.8453818 30.7751791,25.3794645 32.8335628,24.5136793 C33.1122837,23.5955306 33.3014581,23.0897455 33.3014581,23.0897455 L33.730807,21.5694149 C31.5787256,22.7713983 29.1075977,23.4652165 26.4745744,23.4652165" id="Fill-52" fill="#373435" opacity="0.200000003"></path>
                        <g id="Group-56" transform="translate(13.046512, 2.380165)">
                            <mask id="mask-20" fill="white">
                                <use xlink:href="#path-19"></use>
                            </mask>
                            <g id="Clip-55"></g>
                            <path d="M30.3487953,4.89588099 C30.3487953,14.5200793 22.5736674,22.3216661 12.9821093,22.3216661 C3.39055116,22.3216661 -4.38457674,14.5200793 -4.38457674,4.89588099 C-4.38457674,-4.72831736 3.39055116,-12.5299041 12.9821093,-12.5299041 C22.5736674,-12.5299041 30.3487953,-4.72831736 30.3487953,4.89588099" id="Fill-54" fill="#F2BC38" mask="url(#mask-20)"></path>
                        </g>
                        <g id="Group-63">
                            <g id="Group-59" transform="translate(0.000000, 0.595041)">
                                <mask id="mask-22" fill="white">
                                    <use xlink:href="#path-21"></use>
                                </mask>
                                <g id="Clip-58"></g>
                                <path d="M15.1200767,10.0119868 C15.1200767,16.8305653 9.61148372,22.3579041 2.81603023,22.3579041 C-3.97942326,22.3579041 -9.4886093,16.8305653 -9.4886093,10.0119868 C-9.4886093,3.19340826 -3.97942326,-2.33393058 2.81603023,-2.33393058 C9.61148372,-2.33393058 15.1200767,3.19340826 15.1200767,10.0119868" id="Fill-57" fill="#F2BC38" mask="url(#mask-22)"></path>
                            </g>
                            <g id="Group-62" transform="translate(8.302326, 0.000000)">
                                <mask id="mask-24" fill="white">
                                    <use xlink:href="#path-23"></use>
                                </mask>
                                <g id="Clip-61"></g>
                                <path d="M35.4046151,6.98346446 C35.4046151,16.7558281 27.5096965,24.6776132 17.7704756,24.6776132 C8.03125465,24.6776132 0.136336047,16.7558281 0.136336047,6.98346446 C0.136336047,-2.78889917 8.03125465,-10.7106843 17.7704756,-10.7106843 C27.5096965,-10.7106843 35.4046151,-2.78889917 35.4046151,6.98346446" id="Fill-60" fill="#F2BC38" mask="url(#mask-24)"></path>
                            </g>
                        </g>
                    </g>
                </g>
                <g id="boy_5" transform="translate(250.000000, 364.000000)">
                    <g id="shadow-copy-4" transform="translate(0.000000, 67.160000)">
                        <ellipse id="Oval-Copy" fill="#F7F9FA" cx="25.112" cy="2.92" rx="25.112" ry="2.92"></ellipse>
                        <ellipse id="Oval" fill="#E9EAEC" cx="24.82" cy="2.92" rx="10.22" ry="1.168"></ellipse>
                    </g>
                    <g id="Person-0" transform="translate(8.176000, 0.000000)">
                        <g id="Group-47" transform="translate(0.000000, 0.279736)">
                            <path d="M24.273376,43.2575224 L10.257376,43.2575224 C5.741888,43.2575224 2.081376,46.9180344 2.081376,51.4335224 L2.081376,59.6095224 C2.081376,60.8995784 3.12732,61.9455224 4.417376,61.9455224 L30.113376,61.9455224 C31.403432,61.9455224 32.449376,60.8995784 32.449376,59.6095224 L32.449376,51.4335224 C32.449376,46.9180344 28.788864,43.2575224 24.273376,43.2575224" id="Fill-1" fill="#4D4C4E"></path>
                            <path d="M17.265376,47.9295224 L17.265376,47.9295224 C15.33,47.9295224 13.761376,46.3608984 13.761376,44.4255224 L13.761376,36.2495224 L20.769376,36.2495224 L20.769376,44.4255224 C20.769376,46.3608984 19.200752,47.9295224 17.265376,47.9295224" id="Fill-3" fill="#EAC6A0"></path>
                            <path d="M20.769376,41.5055224 C20.769376,41.5055224 18.15364,42.0895224 17.265376,42.0895224 C16.377112,42.0895224 13.761376,41.5055224 13.761376,41.5055224 L13.761376,40.3375224 C13.761376,40.3375224 16.377112,40.9215224 17.265376,40.9215224 C18.15364,40.9215224 20.769376,40.3375224 20.769376,40.3375224 L20.769376,41.5055224 Z" id="Fill-5" fill="#292929" opacity="0.200000003"></path>
                            <path d="M33.033376,14.0575224 L1.497376,14.0575224 L1.497376,21.0655224 C1.497376,24.2909544 4.111944,26.9055224 7.337376,26.9055224 L27.193376,26.9055224 C30.418808,26.9055224 33.033376,24.2909544 33.033376,21.0655224 L33.033376,14.0575224 Z" id="Fill-7" fill="#5F5C61"></path>
                            <path d="M33.033376,25.1828392 C33.033376,26.7952632 31.7258,28.1028392 30.113376,28.1028392 C28.500952,28.1028392 27.193376,26.7952632 27.193376,25.1828392 C27.193376,23.5704152 28.500952,22.2628392 30.113376,22.2628392 C31.7258,22.2628392 33.033376,23.5704152 33.033376,25.1828392" id="Fill-9" fill="#EAC6A0"></path>
                            <path d="M7.337376,25.1828392 C7.337376,26.7952632 6.0298,28.1028392 4.417376,28.1028392 C2.804952,28.1028392 1.497376,26.7952632 1.497376,25.1828392 C1.497376,23.5704152 2.804952,22.2628392 4.417376,22.2628392 C6.0298,22.2628392 7.337376,23.5704152 7.337376,25.1828392" id="Fill-11" fill="#EAC6A0"></path>
                            <path d="M33.033376,14.0575224 C33.033376,20.5083864 27.80424,25.7375224 21.353376,25.7375224 C14.902512,25.7375224 9.673376,20.5083864 9.673376,14.0575224 C9.673376,7.6066584 14.902512,2.3775224 21.353376,2.3775224 C28.961144,2.3775224 33.033376,7.6066584 33.033376,14.0575224" id="Fill-13" fill="#5F5C61"></path>
                            <path d="M17.2654344,40.9215224 L17.2654344,40.9215224 C10.1698344,40.9215224 4.4174344,35.1691224 4.4174344,28.0735224 L4.4174344,16.9775224 C4.4174344,9.8819224 10.1698344,4.1295224 17.2654344,4.1295224 L17.2654344,4.1295224 C24.3610344,4.1295224 30.1134344,9.8819224 30.1134344,16.9775224 L30.1134344,28.0735224 C30.1134344,35.1691224 24.3610344,40.9215224 17.2654344,40.9215224" id="Fill-15" fill="#F8D4AA"></path>
                            <polygon id="Fill-17" fill="#F1F2F2" points="19.601376 43.2575224 17.264792 48.6507624 14.929376 43.2575224 11.425376 43.2575224 17.265376 59.0255224 23.105376 43.2575224"></polygon>
                            <path d="M11.2333568,17.9465536 C7.6756288,17.9296176 4.2890128,16.4853856 1.8011728,14.0016336 L1.4974928,14.0576976 L1.4974928,15.4149136 C4.1506048,17.7952976 7.6073008,19.1671136 11.2275168,19.1846336 C12.4346448,19.1898896 13.6195808,19.0479776 14.7624688,18.7705776 C18.7079728,17.8134016 22.1418928,15.2443856 24.1607808,11.5932176 L23.0774608,10.9946176 C20.6929888,15.3062896 16.1558928,17.9716656 11.2333568,17.9465536" id="Fill-19" fill="#292929" opacity="0.200000003"></path>
                            <path d="M18.6711808,31.3621432 C17.7548848,31.6488872 16.7761008,31.6494712 15.8592208,31.3638952" id="Stroke-21" stroke="#EAC6A0" stroke-width="2" stroke-linecap="round"></path>
                            <path d="M8.5061352,23.1186328 C8.3653912,23.1186328 8.2240632,23.0678248 8.1119352,22.9656248 C7.8742472,22.7477928 7.8578952,22.3781208 8.0751432,22.1404328 C8.8974152,21.2410728 10.3433992,20.9391448 11.5984152,21.4080968 C11.9003432,21.5213928 12.0533512,21.8577768 11.9406392,22.1597048 C11.8273432,22.4616328 11.4938792,22.6152248 11.1890312,22.5019288 C10.2785752,22.1614568 9.3663672,22.4587128 8.9371272,22.9288328 C8.8220792,23.0549768 8.6643992,23.1186328 8.5061352,23.1186328" id="Fill-23" fill="#5F5C61"></path>
                            <path d="M26.0250256,23.1186328 C25.8667616,23.1186328 25.7090816,23.0549768 25.5940336,22.9288328 C25.1647936,22.4587128 24.2520016,22.1614568 23.3421296,22.5019288 C23.0402016,22.6146408 22.7038176,22.4616328 22.5905216,22.1597048 C22.4778096,21.8577768 22.6308176,21.5213928 22.9327456,21.4080968 C24.1842576,20.9391448 25.6331616,21.2410728 26.4560176,22.1404328 C26.6732656,22.3781208 26.6569136,22.7477928 26.4192256,22.9656248 C26.3070976,23.0678248 26.1657696,23.1186328 26.0250256,23.1186328" id="Fill-25" fill="#5F5C61"></path>
                            <path d="M24.6160672,24.2775224 C24.6160672,24.7610744 24.2236192,25.1535224 23.7400672,25.1535224 C23.2565152,25.1535224 22.8640672,24.7610744 22.8640672,24.2775224 C22.8640672,23.7939704 23.2565152,23.4015224 23.7400672,23.4015224 C24.2236192,23.4015224 24.6160672,23.7939704 24.6160672,24.2775224" id="Fill-27" fill="#2D2D2D"></path>
                            <path d="M11.6667432,24.2775224 C11.6667432,24.7610744 11.2742952,25.1535224 10.7907432,25.1535224 C10.3071912,25.1535224 9.9147432,24.7610744 9.9147432,24.2775224 C9.9147432,23.7939704 10.3071912,23.4015224 10.7907432,23.4015224 C11.2742952,23.4015224 11.6667432,23.7939704 11.6667432,24.2775224" id="Fill-29" fill="#2D2D2D"></path>
                            <polygon id="Fill-31" fill="#2878A1" points="18.0077568 45.6198608 17.2660768 45.6198608 17.2654928 45.6198608 17.2649088 45.6198608 16.5232288 45.6198608 14.6345728 46.6850768 16.0402608 49.9058368 18.4907248 49.9058368 19.8964128 46.6850768"></polygon>
                            <polygon id="Fill-33" fill="#2878A1" points="17.265376 59.0255224 15.513376 54.3535224 16.040144 49.9057784 18.490608 49.9057784 19.017376 54.3535224"></polygon>
                            <polygon id="Fill-35" fill="#292929" points="18.5590528 50.4188224 18.4895568 49.9060704 16.0425968 49.9060704 15.9713488 50.4188224"></polygon>
                            <polygon id="Fill-37" fill="#FEFEFE" points="13.761376 41.5055224 11.425376 43.2575224 13.951176 47.8173944 17.251944 45.6198024"></polygon>
                            <polygon id="Fill-39" fill="#FEFEFE" points="20.755944 41.5055224 23.091944 43.2575224 20.566144 47.8173944 17.265376 45.6198024"></polygon>
                            <path d="M19.6987288,35.6504552 C19.2367848,36.0721032 18.0693688,36.2344552 17.3872568,36.2344552" id="Stroke-41" stroke="#F4876D" stroke-width="2" stroke-linecap="round" stroke-linejoin="round"></path>
                            <path d="M15.0752008,35.6504552 C15.5371448,36.0721032 16.7045608,36.2344552 17.3872568,36.2344552" id="Stroke-43" stroke="#F4876D" stroke-width="2" stroke-linecap="round" stroke-linejoin="round"></path>
                            <path d="M24.1608976,3.098704 C18.8710256,-2.197008 2.7648896,-1.037184 0.0002336,13.838464 C3.2227456,17.187704 7.9554816,18.987592 12.9025456,18.24708 C18.4651456,17.413712 22.8398896,13.596688 24.6502896,8.664224" id="Fill-45" fill="#5F5C61"></path>
                            <path d="M15.200644,68.596352 L8.505668,61.916264 L26.025668,61.916264 L19.330108,68.596352 C18.189556,69.7343677 16.341196,69.7343677 15.200644,68.596352" id="Fill-51" fill="#4D4C4E"></path>
                        </g>
                        <g id="Group-50" transform="translate(22.776000, 3.199736)">
                            <mask id="mask-26" fill="white">
                                <use xlink:href="#path-25"></use>
                            </mask>
                            <g id="Clip-49"></g>
                            <path d="M25.6529592,5.4104096 C25.6529592,12.4236656 19.9677192,18.1089056 12.9544632,18.1089056 C5.9417912,18.1089056 0.2565512,12.4236656 0.2565512,5.4104096 C0.2565512,-1.6028464 5.9417912,-7.2880864 12.9544632,-7.2880864 C19.9677192,-7.2880864 25.6529592,-1.6028464 25.6529592,5.4104096" id="Fill-48" fill="#5F5C61" mask="url(#mask-26)"></path>
                        </g>
                    </g>
                </g>
                <g id="parrot" transform="translate(34.000000, 306.000000)">
                    <g id="Group">
                        <polygon id="Shape" fill="#3D78D8" points="37.9014388 47.8079137 28.728777 47.8079137 12.9884892 47.8079137 12.9884892 20.0697842 25.4266187 17.5014388 37.9014388 20.0697842 36.6172662 42.8546763"></polygon>
                        <path d="M49.6791367,31.8841727 C49.6791367,25.3532374 44.3956835,20.1064748 37.9014388,20.1064748 L36.4338129,30.6366906 L37.9014388,41.0568345 C40.9834532,41.0568345 43.5151079,38.818705 43.9920863,35.8834532 L48.9453237,35.8834532 C49.3856115,34.5992806 49.6791367,33.2784173 49.6791367,31.8841727 L49.6791367,31.8841727 Z" id="Shape" fill="#F4B822"></path>
                        <path d="M37.9014388,47.8079137 L37.9014388,20.0697842 L28.618705,20.0697842 C22.5647482,20.0697842 19.3726619,27.2244604 23.4086331,31.7007194 L37.9014388,47.8079137 L37.9014388,47.8079137 Z" id="Shape" fill="#FFFFFF"></path>
                        <ellipse id="Oval" fill="#03060C" cx="28.6553957" cy="27.0043165" rx="3.59568345" ry="3.59568345"></ellipse>
                        <polygon id="Shape" fill="#03060C" points="50.8899281 9.97985612 25.4633094 0.330215827 0 9.97985612 12.9884892 14.9697842 12.9884892 20.0697842 37.9014388 20.0697842 37.9014388 14.9697842"></polygon>
                    </g>
                </g>
                <path d="" id="Line" stroke="#979797" stroke-width="4" stroke-linecap="square"></path>
                <path id="Line-decoration-1" d="M0,0 L-10.8,-3 L-10.8,3 L0,0 Z" stroke="#979797" stroke-width="4" stroke-linecap="square"></path>
                <g id="Rectangle-2">
                    <use fill="black" fill-opacity="1" filter="url(#filter-28)" xlink:href="#path-27"></use>
                    <use fill="#FFFFFF" fill-rule="evenodd" xlink:href="#path-27"></use>
                </g>
                <text id="Feedback-Fixed!-65%" font-family="AvenirNext-Medium, Avenir Next" font-size="12" font-weight="400">
                    <tspan x="71.3846588" y="57.6864929" fill="#2ECC71">Feedback Fixed!</tspan>
                    <tspan x="162.608659" y="57.6864929" font-family="AvenirNext-Regular, Avenir Next" font-size="24" font-weight="normal" fill="#2C3E50"></tspan>
                    <tspan x="71.3846588" y="73.6864929" font-family="AvenirNext-Regular, Avenir Next" font-weight="normal" fill="#2C3E50">65% of students wanted a new system so we </tspan>
                    <tspan x="71.3846588" y="89.6864929" font-family="AvenirNext-Regular, Avenir Next" font-weight="normal" fill="#2C3E50">are implementing It</tspan>
                </text>
                <text id="Feeback-Loop-Complet" font-family="AvenirNext-Regular, Avenir Next" font-size="24" font-weight="normal" fill="#2C3E50">
                    <tspan x="112.744" y="316">Feeback Loop </tspan>
                    <tspan x="131.464" y="349">Complete!</tspan>
                </text>
                <g id="Group" transform="translate(23.564758, 35.113953)" fill="#2ECC71">
                    <path d="M17.795403,35.5908061 C7.98338219,35.5908061 0,27.6081101 0,17.7955011 C0,7.98279395 7.98338219,0 17.795403,0 C27.6075219,0 35.5909041,7.98279395 35.5909041,17.7955011 C35.5909041,27.6081101 27.6075219,35.5908061 17.795403,35.5908061 L17.795403,35.5908061 Z M17.795403,1.14804624 C8.615739,1.14804624 1.14804624,8.61632724 1.14804624,17.7955011 C1.14804624,26.9746749 8.615739,34.4428579 17.795403,34.4428579 C26.9751651,34.4428579 34.4428579,26.9746749 34.4428579,17.7955011 C34.4428579,8.61632724 26.9751651,1.14804624 17.795403,1.14804624 L17.795403,1.14804624 Z" id="Shape"></path>
                    <polygon id="Shape" points="14.505677 25.3859397 8.14397141 19.0242341 8.95574109 18.2125624 14.505677 23.7624003 26.5855549 11.6830127 27.3973245 12.4946843"></polygon>
                </g>
                <ellipse id="Oval" fill="#FE4E22" cx="350.590332" cy="27.8393555" rx="15.8393555" ry="15.8393555"></ellipse>
                <text id="x" font-family="AvenirNext-Regular, Avenir Next" font-size="20" font-weight="normal" fill="#FFFFFF">
                    <tspan x="346.367893" y="32">x</tspan>
                </text>
                <rect id="Rectangle-4" fill="#4FD7ED" x="21" y="597" width="338" height="53" rx="10"></rect>
                <text id="Read-Full-Response" font-family="AvenirNext-Regular, Avenir Next" font-size="20" font-weight="normal" fill="#FFFFFF">
                    <tspan x="100" y="632">Read Full Response</tspan>
                </text>
            </g>
        </g>
    </g>
</svg>