<?xml version="1.0" encoding="UTF-8" standalone="no"?>
<svg width="142px" height="132px" viewBox="0 0 142 132" version="1.1" xmlns="http://www.w3.org/2000/svg" xmlns:xlink="http://www.w3.org/1999/xlink">
    <!-- Generator: Sketch 40.3 (33839) - http://www.bohemiancoding.com/sketch -->
    <title>Paper</title>
    <desc>Created with Sketch.</desc>
    <defs>
        <rect id="path-1" x="4.64150943" y="0" width="36.2448818" height="51.5960143" rx="8"></rect>
        <mask id="mask-2" maskContentUnits="userSpaceOnUse" maskUnits="objectBoundingBox" x="0" y="0" width="36.2448818" height="51.5960143" fill="white">
            <use xlink:href="#path-1"></use>
        </mask>
        <path d="M2.01003995,5.72923635 C2.01003995,2.96719773 5.59688725,0.728123036 6.90998172,0.728123036 L6.90998172,0.728123036 L40.0043113,0.728123036 C44.4202082,0.728123036 48,4.3170177 48,8.7210137 L48,15.8665885 C48,20.2809401 44.425411,23.8594792 40.0043113,23.8594792 L6.90998172,23.8594792 L4.65785022,24.6335244 C0.480097181,26.0693952 -1.08981944,24.1372358 1.1423539,20.333245 L2.01003995,18.8545651 L2.01003995,5.72923635 L2.01003995,5.72923635 Z" id="path-3"></path>
        <mask id="mask-4" maskContentUnits="userSpaceOnUse" maskUnits="objectBoundingBox" x="0" y="0" width="47.8730262" height="24.3801411" fill="white">
            <use xlink:href="#path-3"></use>
        </mask>
        <path d="M1.70605744,5.72923635 C1.70605744,1.84774352 5.03128199,0.0531776488 6.69129337,0.728123036 L6.69129337,0.728123036 L40.4979087,0.728123036 C44.915449,0.728123036 48.4965729,4.3170177 48.4965729,8.7210137 L48.4965729,15.8665885 C48.4965729,20.2809401 44.9142062,23.8594792 40.4979087,23.8594792 L6.69129337,23.8594792 L4.63096439,24.8392963 C0.641668804,26.7364595 -1.10702659,25.0194461 0.730694913,20.9920747 L1.70605744,18.8545651 L1.70605744,5.72923635 L1.70605744,5.72923635 Z" id="path-5"></path>
        <mask id="mask-6" maskContentUnits="userSpaceOnUse" maskUnits="objectBoundingBox" x="0" y="0" width="48.4965729" height="25.0228414" fill="white">
            <use xlink:href="#path-5"></use>
        </mask>
        <path d="M2.01003995,5.72923635 C2.01003995,2.96719773 5.59688725,0.728123036 6.90998172,0.728123036 L6.90998172,0.728123036 L40.0043113,0.728123036 C44.4202082,0.728123036 48,4.3170177 48,8.7210137 L48,15.8665885 C48,20.2809401 44.425411,23.8594792 40.0043113,23.8594792 L6.90998172,23.8594792 L4.65785022,24.6335244 C0.480097181,26.0693952 -1.08981944,24.1372358 1.1423539,20.333245 L2.01003995,18.8545651 L2.01003995,5.72923635 L2.01003995,5.72923635 Z" id="path-7"></path>
        <mask id="mask-8" maskContentUnits="userSpaceOnUse" maskUnits="objectBoundingBox" x="0" y="0" width="47.8730262" height="24.3801411" fill="white">
            <use xlink:href="#path-7"></use>
        </mask>
    </defs>
    <g id="Page-1" stroke="none" stroke-width="1" fill="none" fill-rule="evenodd">
        <g id="Paper">
            <rect id="Rectangle-2" fill="#FFFFFF" x="0" y="0" width="142" height="132"></rect>
            <g id="Background" transform="translate(10.000000, 17.000000)">
                <path d="M105.992444,75.7777778 C108.713556,69.2970556 110.222222,62.1877222 110.222222,54.7287778 C110.222222,24.5020556 85.5496667,0 55.1111111,0 C24.6742778,0 0,24.5020556 0,54.7287778 C0,62.1877222 1.50866667,69.2970556 4.2315,75.7777778 L105.992444,75.7777778 Z" id="Fill-1" fill="#DEF9FC"></path>
                <path d="M94.8975556,76.3055556 C98.2335,70.0142778 100.143444,62.8601667 100.143444,55.2565556 C100.143444,30.2619444 79.7402778,10 54.5717222,10 C29.4031667,10 9,30.2619444 9,55.2565556 C9,62.8601667 10.9082222,70.0142778 14.2458889,76.3055556 L94.8975556,76.3055556 Z" id="Fill-4" fill="#C1F3F9"></path>
            </g>
            <path d="M42.5,93.5 L106.789646,93.5" id="Line" stroke="#504A45" stroke-linecap="square"></path>
            <g id="Questionnaire" transform="translate(1.000000, 50.000000)">
                <rect id="Rectangle" fill="#ECF0F1" x="0" y="6.98684211" width="36.2448818" height="51.5960143" rx="8"></rect>
                <path d="M30.1108859,20.1842105 C30.1108859,20.1842105 42.7257923,52.869151 33.1169335,58.0212877 C31.8723747,58.6886029 29.2099768,58.0212877 27.4315814,58.0212877 C17.0859969,58.0212877 4.64150943,58.0212877 4.64150943,58.0212877 L30.1108859,20.1842105 Z" id="Triangle" fill-opacity="0.15" fill="#D8D8D8"></path>
                <use id="Rectangle" stroke="#F2CCCC" mask="url(#mask-2)" stroke-width="4" fill="#FFFFFF" xlink:href="#path-1"></use>
                <path d="M40.317013,3.10526316 C40.317013,3.10526316 40.3242288,15.2646871 40.317013,27.753669 C40.3168073,28.1097588 40.3172438,36.266455 40.317013,36.6055729 C40.3151595,39.3289065 40.7466909,47.7108088 39.1551684,49.8742285 C37.5636458,52.0376482 9.28301887,52.0376482 9.28301887,52.0376482 L40.317013,3.10526316 Z" id="Triangle-Copy" fill-opacity="0.15" fill="#D8D8D8"></path>
                <path d="M11.3199844,32.2171053 L34.830178,32.2171053" id="Line" stroke="#979797" stroke-linecap="square"></path>
                <path d="M11.3199844,41.5328947 L35.8097694,41.5328947" id="Line" stroke="#979797" stroke-linecap="square"></path>
                <text id="GAD-7" font-family="AvenirNext-Regular, Avenir Next" font-size="7" font-weight="normal" fill="#979797">
                    <tspan x="11.0417071" y="14.7631579">GAD-7</tspan>
                </text>
                <text id="PHQ-9" font-family="AvenirNext-Regular, Avenir Next" font-size="7" font-weight="normal" fill="#979797">
                    <tspan x="10.8844114" y="26.4078947">PHQ-9</tspan>
                </text>
            </g>
            <g id="Speech-Bubble" transform="translate(84.000000, 8.000000)" stroke="#979797">
                <use id="Rectangle-3" mask="url(#mask-4)" stroke-width="2" fill="#FFFFFF" xlink:href="#path-3"></use>
                <path d="M9.63315054,16.5 L40.0243764,16.5" id="Line" stroke-linecap="square"></path>
                <path d="M9.63315054,7.5 L40.0243764,7.5" id="Line" stroke-linecap="square"></path>
            </g>
            <g id="Responder-Speech-Bubble" transform="translate(85.000000, 33.000000)">
                <use id="Rectangle-3" stroke="#2980B9" mask="url(#mask-6)" stroke-width="2" fill="#3498DB" transform="translate(24.248286, 13.100199) scale(-1, 1) translate(-24.248286, -13.100199) " xlink:href="#path-5"></use>
                <path d="M8.63315054,17.8798545 L39.0243764,17.8798545" id="Line" stroke="#FFFFFF" stroke-linecap="square"></path>
                <path d="M8.63315054,8.87985448 L39.0243764,8.87985448" id="Line" stroke="#FFFFFF" stroke-linecap="square"></path>
            </g>
            <g id="Face-Copy" transform="translate(66.000000, 11.000000)">
                <path d="M16.8413498,8.4634087 C17.1259067,8.19439742 17.3054815,7.81682576 17.3054815,7.39692238 C17.3054815,6.57964702 16.6355295,5.91736039 15.8087949,5.91736039 C15.5290727,2.60934106 12.7380665,-0.000204830918 9.32407407,-0.000204830918 C5.91008162,-0.000204830918 3.11907545,2.60934106 2.86421742,5.92009147 C2.01261866,5.91736039 1.34266667,6.57964702 1.34266667,7.39692238 C1.34266667,7.81682576 1.52224143,8.19439742 1.80679835,8.4634087 C0.965559671,8.6955504 0.345336077,9.45001095 0.345336077,10.3553636 C0.345336077,11.3242138 1.05327503,12.1264683 1.98568244,12.2923813 C1.94769547,12.4630738 1.92490329,12.6392283 1.92490329,12.8208451 C1.92490329,14.1822879 3.04172016,15.2863266 4.41892044,15.2863266 C5.79681139,15.2863266 6.91293759,14.1822879 6.91293759,12.8208451 C6.91293759,12.652201 6.89567078,12.4869707 6.86251852,12.3278853 L11.9513909,12.3278853 C11.9189294,12.4869707 11.9009719,12.652201 11.9009719,12.8208451 C11.9009719,14.1822879 13.0177888,15.2863266 14.3956797,15.2863266 C15.77288,15.2863266 16.8896968,14.1822879 16.8896968,12.8208451 C16.8896968,12.6248902 16.8606886,12.4371285 16.8171763,12.254829 C17.6708471,12.0308805 18.3028121,11.2695923 18.3028121,10.3553636 C18.3028121,9.45001095 17.6825885,8.6955504 16.8413498,8.4634087 Z" id="Fill-53" fill="#FED75C"></path>
                <path d="M9.32407407,2.38969404 C11.8843957,2.38969404 14.1435844,3.24588728 15.520094,4.55407407 C14.7147702,1.92063124 12.2511427,0 9.32407407,0 C6.39700549,0 3.93337791,1.92063124 3.12805418,4.55407407 C4.50456379,3.24588728 6.7637524,2.38969404 9.32407407,2.38969404" id="Fill-55" fill="#FFECB0"></path>
                <path d="M18.3028121,10.3553636 C18.3028121,9.45001095 17.6825885,8.6955504 16.8413498,8.4634087 C17.1259067,8.19439742 17.3054815,7.81682576 17.3054815,7.39692238 C17.3054815,6.57964702 16.6355295,5.91736039 15.8087949,5.91736039 C15.7998162,5.91736039 15.7922188,5.9194087 15.7839307,5.92009147 C15.5290727,2.60934106 12.7380665,-0.000204830918 9.32407407,-0.000204830918 C5.91008162,-0.000204830918 3.11907545,2.60934106 2.86421742,5.92009147 C2.85592936,5.9194087 2.84833196,5.91736039 2.83935322,5.91736039 C2.01261866,5.91736039 1.34266667,6.57964702 1.34266667,7.39692238 C1.34266667,7.81682576 1.52224143,8.19439742 1.80679835,8.4634087 C0.965559671,8.6955504 0.345336077,9.45001095 0.345336077,10.3553636 C0.345336077,11.3242138 1.05327503,12.1264683 1.98568244,12.2923813 C1.94769547,12.4630738 1.92490329,12.6392283 1.92490329,12.8208451 C1.92490329,14.1822879 3.04172016,15.2863266 4.41892044,15.2863266 C5.79681139,15.2863266 6.91293759,14.1822879 6.91293759,12.8208451 C6.91293759,12.652201 6.89567078,12.4869707 6.86251852,12.3278853 L11.9513909,12.3278853 C11.9189294,12.4869707 11.9009719,12.652201 11.9009719,12.8208451 C11.9009719,14.1822879 13.0177888,15.2863266 14.3956797,15.2863266 C15.77288,15.2863266 16.8896968,14.1822879 16.8896968,12.8208451 C16.8896968,12.6248902 16.8606886,12.4371285 16.8171763,12.254829 C17.6708471,12.0308805 18.3028121,11.2695923 18.3028121,10.3553636 L18.3028121,10.3553636 Z" id="Stroke-57" stroke="#504B46" stroke-linejoin="round"></path>
                <path d="M12.4061986,8.0189256 C10.0358117,8.0189256 7.94100309,6.85275491 6.6756917,5.06936039 C6.6756917,6.66226216 5.3958762,7.95201417 3.79835151,8.00800129 L3.79835151,10.2413411 C3.79835151,13.2585005 6.27233916,15.7034989 9.32372874,15.7034989 C12.375809,15.7034989 14.849106,13.2585005 14.849106,10.2413411 L14.849106,7.62155362 C14.1128495,7.83935717 13.1210442,8.0189256 12.4061986,8.0189256" id="Fill-59" fill="#FDDFD1"></path>
                <path d="M12.4061986,8.0189256 C10.0358117,8.0189256 7.94100309,6.85275491 6.6756917,5.06936039 C6.6756917,6.66226216 5.3958762,7.95201417 3.79835151,8.00800129 L3.79835151,10.2413411 C3.79835151,13.2585005 6.27233916,15.7034989 9.32372874,15.7034989 C12.375809,15.7034989 14.849106,13.2585005 14.849106,10.2413411 L14.849106,7.62155362 C14.1128495,7.83935717 13.1210442,8.0189256 12.4061986,8.0189256 L12.4061986,8.0189256 Z" id="Stroke-61" stroke="#504B46" stroke-linecap="round" stroke-linejoin="round"></path>
                <path d="M8.28806584,9.55877617 C8.07464815,9.15799034 7.70030384,8.87600644 7.25205761,8.87600644 C6.80381139,8.87600644 6.42946708,9.15799034 6.21604938,9.55877617" id="Stroke-63" stroke="#504B46" stroke-linecap="round" stroke-linejoin="round"></path>
                <path d="M12.4320988,9.55877617 C12.2186811,9.15799034 11.8443368,8.87600644 11.3960905,8.87600644 C10.9478443,8.87600644 10.5735,9.15799034 10.3600823,9.55877617" id="Stroke-65" stroke="#504B46" stroke-linecap="round" stroke-linejoin="round"></path>
                <path d="M7.2002572,12.6312399 C7.62640192,13.0320258 8.37647188,13.3140097 9.27227366,13.3140097 C10.1680754,13.3140097 10.9181454,13.0320258 11.3442901,12.6312399" id="Stroke-67" stroke="#504B46" stroke-linecap="round" stroke-linejoin="round"></path>
                <path d="M6.56138546,11.6070853 C6.56138546,11.9839742 6.25196433,12.2898551 5.87071331,12.2898551 C5.48946228,12.2898551 5.18004115,11.9839742 5.18004115,11.6070853 C5.18004115,11.2301965 5.48946228,10.9243156 5.87071331,10.9243156 C6.25196433,10.9243156 6.56138546,11.2301965 6.56138546,11.6070853" id="Fill-69" fill="#FCCAB4"></path>
                <path d="M13.468107,11.6070853 C13.468107,11.9839742 13.1586859,12.2898551 12.7774348,12.2898551 C12.3961838,12.2898551 12.0867627,11.9839742 12.0867627,11.6070853 C12.0867627,11.2301965 12.3961838,10.9243156 12.7774348,10.9243156 C13.1586859,10.9243156 13.468107,11.2301965 13.468107,11.6070853" id="Fill-71" fill="#FCCAB4"></path>
            </g>
            <g id="Speech-Bubble" transform="translate(85.000000, 59.000000)" stroke="#979797">
                <use id="Rectangle-3" mask="url(#mask-8)" stroke-width="2" fill="#FFFFFF" xlink:href="#path-7"></use>
                <path d="M9.63315054,16.5 L40.0243764,16.5" id="Line" stroke-linecap="square"></path>
                <path d="M9.63315054,7.5 L40.0243764,7.5" id="Line" stroke-linecap="square"></path>
            </g>
            <g id="Face-Copy" transform="translate(67.000000, 62.000000)">
                <path d="M16.8413498,8.56136481 C17.1259067,8.28923999 17.3054815,7.90729829 17.3054815,7.48253491 C17.3054815,6.65580034 16.6355295,5.98584835 15.8087949,5.98584835 C15.5290727,2.63954177 12.7380665,-0.000207201646 9.32407407,-0.000207201646 C5.91008162,-0.000207201646 3.11907545,2.63954177 2.86421742,5.98861104 C2.01261866,5.98584835 1.34266667,6.65580034 1.34266667,7.48253491 C1.34266667,7.90729829 1.52224143,8.28923999 1.80679835,8.56136481 C0.965559671,8.79619335 0.345336077,9.55938608 0.345336077,10.4752174 C0.345336077,11.4552811 1.05327503,12.2668209 1.98568244,12.4346543 C1.94769547,12.6073223 1.92490329,12.7855157 1.92490329,12.9692345 C1.92490329,14.3464348 3.04172016,15.4632516 4.41892044,15.4632516 C5.79681139,15.4632516 6.91293759,14.3464348 6.91293759,12.9692345 C6.91293759,12.7986385 6.89567078,12.6314958 6.86251852,12.4705692 L11.9513909,12.4705692 C11.9189294,12.6314958 11.9009719,12.7986385 11.9009719,12.9692345 C11.9009719,14.3464348 13.0177888,15.4632516 14.3956797,15.4632516 C15.77288,15.4632516 16.8896968,14.3464348 16.8896968,12.9692345 C16.8896968,12.7710116 16.8606886,12.5810767 16.8171763,12.3966673 C17.6708471,12.1701268 18.3028121,11.4000274 18.3028121,10.4752174 C18.3028121,9.55938608 17.6825885,8.79619335 16.8413498,8.56136481 Z" id="Fill-53" fill="#FED75C"></path>
                <path d="M9.32407407,2.41735254 C11.8843957,2.41735254 14.1435844,3.28345542 15.520094,4.60678326 C14.7147702,1.94286077 12.2511427,0 9.32407407,0 C6.39700549,0 3.93337791,1.94286077 3.12805418,4.60678326 C4.50456379,3.28345542 6.7637524,2.41735254 9.32407407,2.41735254" id="Fill-55" fill="#FFECB0"></path>
                <path d="M18.3028121,10.4752174 C18.3028121,9.55938608 17.6825885,8.79619335 16.8413498,8.56136481 C17.1259067,8.28923999 17.3054815,7.90729829 17.3054815,7.48253491 C17.3054815,6.65580034 16.6355295,5.98584835 15.8087949,5.98584835 C15.7998162,5.98584835 15.7922188,5.98792037 15.7839307,5.98861104 C15.5290727,2.63954177 12.7380665,-0.000207201646 9.32407407,-0.000207201646 C5.91008162,-0.000207201646 3.11907545,2.63954177 2.86421742,5.98861104 C2.85592936,5.98792037 2.84833196,5.98584835 2.83935322,5.98584835 C2.01261866,5.98584835 1.34266667,6.65580034 1.34266667,7.48253491 C1.34266667,7.90729829 1.52224143,8.28923999 1.80679835,8.56136481 C0.965559671,8.79619335 0.345336077,9.55938608 0.345336077,10.4752174 C0.345336077,11.4552811 1.05327503,12.2668209 1.98568244,12.4346543 C1.94769547,12.6073223 1.92490329,12.7855157 1.92490329,12.9692345 C1.92490329,14.3464348 3.04172016,15.4632516 4.41892044,15.4632516 C5.79681139,15.4632516 6.91293759,14.3464348 6.91293759,12.9692345 C6.91293759,12.7986385 6.89567078,12.6314958 6.86251852,12.4705692 L11.9513909,12.4705692 C11.9189294,12.6314958 11.9009719,12.7986385 11.9009719,12.9692345 C11.9009719,14.3464348 13.0177888,15.4632516 14.3956797,15.4632516 C15.77288,15.4632516 16.8896968,14.3464348 16.8896968,12.9692345 C16.8896968,12.7710116 16.8606886,12.5810767 16.8171763,12.3966673 C17.6708471,12.1701268 18.3028121,11.4000274 18.3028121,10.4752174 L18.3028121,10.4752174 Z" id="Stroke-57" stroke="#504B46" stroke-linejoin="round"></path>
                <path d="M12.4061986,8.11173724 C10.0358117,8.11173724 7.94100309,6.9320692 6.6756917,5.12803354 C6.6756917,6.73937167 5.3958762,8.04405137 3.79835151,8.10068649 L3.79835151,10.3598751 C3.79835151,13.4119553 6.27233916,15.8852523 9.32372874,15.8852523 C12.375809,15.8852523 14.849106,13.4119553 14.849106,10.3598751 L14.849106,7.70976605 C14.1128495,7.93009047 13.1210442,8.11173724 12.4061986,8.11173724" id="Fill-59" fill="#FDDFD1"></path>
                <path d="M12.4061986,8.11173724 C10.0358117,8.11173724 7.94100309,6.9320692 6.6756917,5.12803354 C6.6756917,6.73937167 5.3958762,8.04405137 3.79835151,8.10068649 L3.79835151,10.3598751 C3.79835151,13.4119553 6.27233916,15.8852523 9.32372874,15.8852523 C12.375809,15.8852523 14.849106,13.4119553 14.849106,10.3598751 L14.849106,7.70976605 C14.1128495,7.93009047 13.1210442,8.11173724 12.4061986,8.11173724 L12.4061986,8.11173724 Z" id="Stroke-61" stroke="#504B46" stroke-linecap="round" stroke-linejoin="round"></path>
                <path d="M8.28806584,9.66941015 C8.07464815,9.2639856 7.70030384,8.978738 7.25205761,8.978738 C6.80381139,8.978738 6.42946708,9.2639856 6.21604938,9.66941015" id="Stroke-63" stroke="#504B46" stroke-linecap="round" stroke-linejoin="round"></path>
                <path d="M12.4320988,9.66941015 C12.2186811,9.2639856 11.8443368,8.978738 11.3960905,8.978738 C10.9478443,8.978738 10.5735,9.2639856 10.3600823,9.66941015" id="Stroke-65" stroke="#504B46" stroke-linecap="round" stroke-linejoin="round"></path>
                <path d="M7.2002572,12.7774348 C7.62640192,13.1828594 8.37647188,13.468107 9.27227366,13.468107 C10.1680754,13.468107 10.9181454,13.1828594 11.3442901,12.7774348" id="Stroke-67" stroke="#504B46" stroke-linecap="round" stroke-linejoin="round"></path>
                <path d="M6.56138546,11.7414266 C6.56138546,12.1226776 6.25196433,12.4320988 5.87071331,12.4320988 C5.48946228,12.4320988 5.18004115,12.1226776 5.18004115,11.7414266 C5.18004115,11.3601756 5.48946228,11.0507545 5.87071331,11.0507545 C6.25196433,11.0507545 6.56138546,11.3601756 6.56138546,11.7414266" id="Fill-69" fill="#FCCAB4"></path>
                <path d="M13.468107,11.7414266 C13.468107,12.1226776 13.1586859,12.4320988 12.7774348,12.4320988 C12.3961838,12.4320988 12.0867627,12.1226776 12.0867627,11.7414266 C12.0867627,11.3601756 12.3961838,11.0507545 12.7774348,11.0507545 C13.1586859,11.0507545 13.468107,11.3601756 13.468107,11.7414266" id="Fill-71" fill="#FCCAB4"></path>
            </g>
            <path d="M44.5,76.5 L63.5,48.5" id="arrow" stroke="#E67E22" stroke-linecap="square" fill="#E67E22"></path>
            <path id="arrow-decoration-1" d="M63.5,48.5 L54.9533574,55.7522341 L59.918212,59.1212426 L63.5,48.5 Z" stroke="#E67E22" stroke-linecap="square" fill="#E67E22"></path>
        </g>
    </g>
</svg>