<?xml version="1.0" encoding="UTF-8" standalone="no"?>
<svg width="142px" height="132px" viewBox="0 0 142 132" version="1.1" xmlns="http://www.w3.org/2000/svg" xmlns:xlink="http://www.w3.org/1999/xlink">
    <!-- Generator: Sketch 40.3 (33839) - http://www.bohemiancoding.com/sketch -->
    <title>Report</title>
    <desc>Created with Sketch.</desc>
    <defs></defs>
    <g id="Page-1" stroke="none" stroke-width="1" fill="none" fill-rule="evenodd">
        <g id="Report">
            <rect id="Rectangle-2" fill="#FFFFFF" x="0" y="0" width="142" height="132"></rect>
            <path d="M121.991756,91.3710833 C124.712867,84.8903611 126.221533,77.7810278 126.221533,70.3220833 C126.221533,40.0953611 101.548978,15.5933056 71.1104222,15.5933056 C40.6735889,15.5933056 15.9993111,40.0953611 15.9993111,70.3220833 C15.9993111,77.7810278 17.5079778,84.8903611 20.2308111,91.3710833 L121.991756,91.3710833 Z" id="Fill-1" fill="#DEF9FC"></path>
            <path d="M111.436944,92.2321944 C114.772889,85.9409167 116.682833,78.7868056 116.682833,71.1831944 C116.682833,46.1885833 96.2796667,25.9266389 71.1111111,25.9266389 C45.9425556,25.9266389 25.5393889,46.1885833 25.5393889,71.1831944 C25.5393889,78.7868056 27.4476111,85.9409167 30.7852778,92.2321944 L111.436944,92.2321944 Z" id="Fill-4" fill="#C1F3F9"></path>
            <g transform="translate(33.000000, 47.000000)">
                <rect id="Rectangle" fill="#ECF0F1" x="0.397673078" y="5.2309073" width="71.9077831" height="35.2805651" rx="8"></rect>
                <path d="M23.9440216,14.639058 C23.9440216,14.639058 33.8260373,36.9885201 26.2988397,40.5114724 C25.3239019,40.9677723 23.2382853,40.5114724 21.8451612,40.5114724 C13.740842,40.5114724 3.9923258,40.5114724 3.9923258,40.5114724 L23.9440216,14.639058 Z" id="Triangle" fill-opacity="0.15" fill="#D8D8D8"></path>
                <rect id="Rectangle" fill="#E67E22" x="4.23453766" y="0.526831953" width="72.506836" height="35.2805651" rx="8"></rect>
                <path d="M76.626496,2.34818092 C76.626496,2.34818092 76.6424361,10.6626089 76.626496,19.2023837 C76.6260416,19.4458724 76.6270059,25.0232965 76.626496,25.2551801 C76.6224017,27.1173539 77.5756684,32.8487705 74.0599438,34.3280838 C70.5442192,35.807397 8.07140225,35.807397 8.07140225,35.807397 L76.626496,2.34818092 Z" id="Triangle-Copy" fill-opacity="0.15" fill="#D8D8D8"></path>
                <text id="AGE" font-family="BigJohn, Big John" font-size="4" font-weight="normal" fill="#FFFFFF">
                    <tspan x="11.6861325" y="13.875924">AGE</tspan>
                </text>
                <text id="NAME" font-family="BigJohn, Big John" font-size="4" font-weight="normal" fill="#FFFFFF">
                    <tspan x="29.8037615" y="13.875924">NAME</tspan>
                </text>
                <text id="ANXIETY" font-family="BigJohn, Big John" font-size="4" font-weight="normal" fill="#FFFFFF">
                    <tspan x="52.2056552" y="14.1818182">ANXIETY</tspan>
                </text>
                <text id="22" font-family="AvenirNext-Regular, Avenir Next" font-size="5" font-weight="normal" fill="#FFFFFF">
                    <tspan x="13.1861374" y="22.7045455">22</tspan>
                </text>
                <text id="Joe-Bloggs" font-family="AvenirNext-Regular, Avenir Next" font-size="5" font-weight="normal" fill="#FFFFFF">
                    <tspan x="32.5001461" y="20.8409091">Joe </tspan>
                    <tspan x="28.6701461" y="27.8409091">Bloggs</tspan>
                </text>
                <text id="Mild" font-family="AvenirNext-Regular, Avenir Next" font-size="5" font-weight="normal" fill="#FFFFFF">
                    <tspan x="56.6733389" y="23.6363636">Mild</tspan>
                </text>
            </g>
        </g>
    </g>
</svg>