<?xml version="1.0" encoding="UTF-8" standalone="no"?>
<svg width="20px" height="18px" viewBox="0 0 20 18" version="1.1" xmlns="http://www.w3.org/2000/svg" xmlns:xlink="http://www.w3.org/1999/xlink">
    <!-- Generator: Sketch 40.3 (33839) - http://www.bohemiancoding.com/sketch -->
    <title>TherapistAvatar</title>
    <desc>Created with Sketch.</desc>
    <defs></defs>
    <g id="Page-1" stroke="none" stroke-width="1" fill="none" fill-rule="evenodd">
        <g id="TherapistAvatar" transform="translate(1.000000, 1.000000)">
            <path d="M16.8413498,8.4634087 C17.1259067,8.19439742 17.3054815,7.81682576 17.3054815,7.39692238 C17.3054815,6.57964702 16.6355295,5.91736039 15.8087949,5.91736039 C15.5290727,2.60934106 12.7380665,-0.000204830918 9.32407407,-0.000204830918 C5.91008162,-0.000204830918 3.11907545,2.60934106 2.86421742,5.92009147 C2.01261866,5.91736039 1.34266667,6.57964702 1.34266667,7.39692238 C1.34266667,7.81682576 1.52224143,8.19439742 1.80679835,8.4634087 C0.965559671,8.6955504 0.345336077,9.45001095 0.345336077,10.3553636 C0.345336077,11.3242138 1.05327503,12.1264683 1.98568244,12.2923813 C1.94769547,12.4630738 1.92490329,12.6392283 1.92490329,12.8208451 C1.92490329,14.1822879 3.04172016,15.2863266 4.41892044,15.2863266 C5.79681139,15.2863266 6.91293759,14.1822879 6.91293759,12.8208451 C6.91293759,12.652201 6.89567078,12.4869707 6.86251852,12.3278853 L11.9513909,12.3278853 C11.9189294,12.4869707 11.9009719,12.652201 11.9009719,12.8208451 C11.9009719,14.1822879 13.0177888,15.2863266 14.3956797,15.2863266 C15.77288,15.2863266 16.8896968,14.1822879 16.8896968,12.8208451 C16.8896968,12.6248902 16.8606886,12.4371285 16.8171763,12.254829 C17.6708471,12.0308805 18.3028121,11.2695923 18.3028121,10.3553636 C18.3028121,9.45001095 17.6825885,8.6955504 16.8413498,8.4634087 Z" id="Fill-53" fill="#FED75C"></path>
            <path d="M9.32407407,2.38969404 C11.8843957,2.38969404 14.1435844,3.24588728 15.520094,4.55407407 C14.7147702,1.92063124 12.2511427,0 9.32407407,0 C6.39700549,0 3.93337791,1.92063124 3.12805418,4.55407407 C4.50456379,3.24588728 6.7637524,2.38969404 9.32407407,2.38969404" id="Fill-55" fill="#FFECB0"></path>
            <path d="M18.3028121,10.3553636 C18.3028121,9.45001095 17.6825885,8.6955504 16.8413498,8.4634087 C17.1259067,8.19439742 17.3054815,7.81682576 17.3054815,7.39692238 C17.3054815,6.57964702 16.6355295,5.91736039 15.8087949,5.91736039 C15.7998162,5.91736039 15.7922188,5.9194087 15.7839307,5.92009147 C15.5290727,2.60934106 12.7380665,-0.000204830918 9.32407407,-0.000204830918 C5.91008162,-0.000204830918 3.11907545,2.60934106 2.86421742,5.92009147 C2.85592936,5.9194087 2.84833196,5.91736039 2.83935322,5.91736039 C2.01261866,5.91736039 1.34266667,6.57964702 1.34266667,7.39692238 C1.34266667,7.81682576 1.52224143,8.19439742 1.80679835,8.4634087 C0.965559671,8.6955504 0.345336077,9.45001095 0.345336077,10.3553636 C0.345336077,11.3242138 1.05327503,12.1264683 1.98568244,12.2923813 C1.94769547,12.4630738 1.92490329,12.6392283 1.92490329,12.8208451 C1.92490329,14.1822879 3.04172016,15.2863266 4.41892044,15.2863266 C5.79681139,15.2863266 6.91293759,14.1822879 6.91293759,12.8208451 C6.91293759,12.652201 6.89567078,12.4869707 6.86251852,12.3278853 L11.9513909,12.3278853 C11.9189294,12.4869707 11.9009719,12.652201 11.9009719,12.8208451 C11.9009719,14.1822879 13.0177888,15.2863266 14.3956797,15.2863266 C15.77288,15.2863266 16.8896968,14.1822879 16.8896968,12.8208451 C16.8896968,12.6248902 16.8606886,12.4371285 16.8171763,12.254829 C17.6708471,12.0308805 18.3028121,11.2695923 18.3028121,10.3553636 L18.3028121,10.3553636 Z" id="Stroke-57" stroke="#504B46" stroke-linejoin="round"></path>
            <path d="M12.4061986,8.0189256 C10.0358117,8.0189256 7.94100309,6.85275491 6.6756917,5.06936039 C6.6756917,6.66226216 5.3958762,7.95201417 3.79835151,8.00800129 L3.79835151,10.2413411 C3.79835151,13.2585005 6.27233916,15.7034989 9.32372874,15.7034989 C12.375809,15.7034989 14.849106,13.2585005 14.849106,10.2413411 L14.849106,7.62155362 C14.1128495,7.83935717 13.1210442,8.0189256 12.4061986,8.0189256" id="Fill-59" fill="#FDDFD1"></path>
            <path d="M12.4061986,8.0189256 C10.0358117,8.0189256 7.94100309,6.85275491 6.6756917,5.06936039 C6.6756917,6.66226216 5.3958762,7.95201417 3.79835151,8.00800129 L3.79835151,10.2413411 C3.79835151,13.2585005 6.27233916,15.7034989 9.32372874,15.7034989 C12.375809,15.7034989 14.849106,13.2585005 14.849106,10.2413411 L14.849106,7.62155362 C14.1128495,7.83935717 13.1210442,8.0189256 12.4061986,8.0189256 L12.4061986,8.0189256 Z" id="Stroke-61" stroke="#504B46" stroke-linecap="round" stroke-linejoin="round"></path>
            <path d="M8.28806584,9.55877617 C8.07464815,9.15799034 7.70030384,8.87600644 7.25205761,8.87600644 C6.80381139,8.87600644 6.42946708,9.15799034 6.21604938,9.55877617" id="Stroke-63" stroke="#504B46" stroke-linecap="round" stroke-linejoin="round"></path>
            <path d="M12.4320988,9.55877617 C12.2186811,9.15799034 11.8443368,8.87600644 11.3960905,8.87600644 C10.9478443,8.87600644 10.5735,9.15799034 10.3600823,9.55877617" id="Stroke-65" stroke="#504B46" stroke-linecap="round" stroke-linejoin="round"></path>
            <path d="M7.2002572,12.6312399 C7.62640192,13.0320258 8.37647188,13.3140097 9.27227366,13.3140097 C10.1680754,13.3140097 10.9181454,13.0320258 11.3442901,12.6312399" id="Stroke-67" stroke="#504B46" stroke-linecap="round" stroke-linejoin="round"></path>
            <path d="M6.56138546,11.6070853 C6.56138546,11.9839742 6.25196433,12.2898551 5.87071331,12.2898551 C5.48946228,12.2898551 5.18004115,11.9839742 5.18004115,11.6070853 C5.18004115,11.2301965 5.48946228,10.9243156 5.87071331,10.9243156 C6.25196433,10.9243156 6.56138546,11.2301965 6.56138546,11.6070853" id="Fill-69" fill="#FCCAB4"></path>
            <path d="M13.468107,11.6070853 C13.468107,11.9839742 13.1586859,12.2898551 12.7774348,12.2898551 C12.3961838,12.2898551 12.0867627,11.9839742 12.0867627,11.6070853 C12.0867627,11.2301965 12.3961838,10.9243156 12.7774348,10.9243156 C13.1586859,10.9243156 13.468107,11.2301965 13.468107,11.6070853" id="Fill-71" fill="#FCCAB4"></path>
        </g>
    </g>
</svg>